<svg width="375" height="55" viewBox="0 0 375 55" fill="none" xmlns="http://www.w3.org/2000/svg">
<path d="M17.8088 8.77148V24.5561C25.9081 30.3526 40.6959 34.746 70.2562 34.746C53.6538 37.0922 38.8736 35.4361 29.5603 33.5473C17.2465 31.0503 0 21.7549 0 9.96248C0 3.84391 4.71033 2.01141 4.71033 2.01141C4.71033 2.01141 8.39578 0.120122 8.39578 0C3.88992 5.43617 4.75633 6.89042 4.64643 9.96248C6.14157 15.4344 9.82961 19.1224 12.9375 22.0999V4.98379H69.8447V30.5673L65.7989 31.5462V8.77148H17.8088Z" fill="#1F1F21"/>
<path fill-rule="evenodd" clip-rule="evenodd" d="M60.6798 13.5764C59.1412 12.0404 57.0582 11.1765 54.8858 11.1765C52.7134 11.1765 50.6304 12.0404 49.0943 13.5764C47.5583 15.1124 46.6945 17.198 46.6945 19.3704C46.6945 21.5428 47.5583 23.6258 49.0943 25.1618C50.6304 26.6978 52.7134 27.5617 54.8858 27.5617C57.0582 27.5617 59.1412 26.6978 60.6798 25.1618C62.2158 23.6258 63.0771 21.5428 63.0771 19.3704C63.0771 17.198 62.2158 15.1124 60.6798 13.5764ZM60.6976 15.8638C61.2114 16.7149 61.5334 17.6708 61.6382 18.6675H58.3847C58.3617 18.0337 58.3054 17.4203 58.2185 16.8402C59.1054 16.6255 59.9181 16.3111 60.6184 15.9098C60.6465 15.8945 60.6721 15.8792 60.6976 15.8638ZM59.6856 14.5706C59.7392 14.6243 59.7929 14.6805 59.844 14.7367C59.2945 15.0383 58.653 15.2837 57.9502 15.46C57.6895 14.4173 57.3189 13.5278 56.8563 12.8736C57.9144 13.1956 58.8881 13.7732 59.6856 14.5706ZM54.8858 13.0499C55.4889 13.0499 56.1407 14.0927 56.5547 15.7079C56.1483 15.7539 55.7317 15.7769 55.3049 15.7769C54.5919 15.7769 53.8992 15.7105 53.2475 15.5878C53.6641 14.0416 54.2979 13.0499 54.8858 13.0499ZM55.3049 17.1801C55.8237 17.1801 56.3349 17.1494 56.8307 17.0906C56.9023 17.5864 56.9534 18.1155 56.9764 18.6675H52.7951C52.8207 18.0669 52.8769 17.4944 52.9587 16.9603C53.705 17.106 54.4947 17.1801 55.3049 17.1801ZM52.9127 12.8761C52.4884 13.4818 52.1409 14.2869 51.8827 15.23C51.2617 15.0128 50.7096 14.7367 50.2521 14.4121C51.0163 13.6965 51.9262 13.1751 52.9127 12.8761ZM49.3269 15.4779C49.9582 15.9431 50.7301 16.329 51.5888 16.6101C51.484 17.2593 51.415 17.9494 51.3895 18.6675H48.1359C48.256 17.5174 48.665 16.421 49.3269 15.4779ZM48.1359 20.0707H51.3895C51.415 20.794 51.484 21.4891 51.5914 22.1434C50.7326 22.422 49.9659 22.8028 49.3346 23.2705C48.6701 22.3274 48.256 21.2259 48.1359 20.0707ZM50.2598 24.3337C50.7173 24.0117 51.2668 23.7382 51.8878 23.5261C52.146 24.4615 52.491 25.2589 52.9127 25.8621C51.9313 25.5631 51.0214 25.0442 50.2598 24.3337ZM54.8858 25.6883C54.3005 25.6883 53.6667 24.7018 53.2501 23.1657C53.8992 23.0431 54.5919 22.9766 55.3049 22.9766C55.7292 22.9766 56.1458 22.9996 56.5522 23.0456C56.1381 24.6507 55.4889 25.6883 54.8858 25.6883ZM55.3049 21.5735C54.4947 21.5735 53.7076 21.6476 52.9613 21.7907C52.8769 21.2515 52.8207 20.6738 52.7951 20.0707H56.9764C56.9534 20.6278 56.9023 21.162 56.8282 21.6629C56.3324 21.6041 55.8237 21.5735 55.3049 21.5735ZM59.6856 24.1676C58.8907 24.9625 57.917 25.5401 56.8614 25.8621C57.3163 25.2104 57.6844 24.3286 57.9451 23.2935C58.6453 23.4648 59.2843 23.7076 59.8338 24.0117C59.7878 24.0654 59.7367 24.1165 59.6856 24.1676ZM60.69 22.8872C60.667 22.8718 60.6414 22.8565 60.6184 22.8437C59.9181 22.4425 59.1054 22.1281 58.2185 21.9134C58.3054 21.3281 58.3617 20.7096 58.3847 20.0707H61.6382C61.5334 21.0725 61.2088 22.0335 60.69 22.8872Z" fill="#FFD050"/>
<path fill-rule="evenodd" clip-rule="evenodd" d="M77.4124 17.9851C77.4124 17.9851 79.3906 20.1678 80.0756 21.875C81.1005 24.4308 81.2283 25.7138 80.4334 28.9137C79.0175 34.6233 73.1136 36.5708 66.1491 38.8915C62.1876 40.2128 45.2606 41.1457 36.3408 40.5298C24.3261 39.7042 11.4806 36.9721 10.0366 36.006C10.2411 36.622 24.3721 42.968 34.6029 43.8063H35.2572V46.426H31.9142V45.1353H30.9532V46.426H27.8786V44.7673H26.9176V46.426H24.4181V44.3992H23.0712V46.426H19.2528V41.9636L12.0838 54.2518H71.6798L68.1273 43.7705C80.3082 40.4965 84.1163 35.9881 85.2843 31.2625C87.6535 21.6706 77.4124 17.9851 77.4124 17.9851ZM20.4821 49.769H17.2286V48.4629H20.4821V49.769ZM25.3714 49.769H22.1204V48.4629H25.3714V49.769ZM30.2862 49.769H27.0352V48.4629H30.2862V49.769ZM35.201 49.769H31.95V48.4629H35.201V49.769ZM60.5238 45.2018V46.5052H58.5737V45.2018H60.5238ZM40.1183 49.769H36.8648V48.4629H40.1183V49.769ZM40.1183 46.5052H37.514V45.2018H40.1183V46.5052ZM43.8268 49.769H41.7796V48.4629H43.8268V49.769ZM44.7903 46.5052H42.1885V45.2018H44.7903V46.5052ZM48.0668 49.769H45.465V48.4629H48.0668V49.769ZM49.2962 46.5052H46.6944V45.2018H49.2962V46.5052ZM52.1638 49.769H49.562V48.4629H52.1638V49.769ZM53.1529 46.5052H51.2002V45.2018H53.1529V46.5052ZM56.2607 49.769H53.6564V48.4629H56.2607V49.769ZM56.8383 46.5052H54.8857V45.2018H56.8383V46.5052ZM61.0068 49.769H57.7533V48.4629H61.0068V49.769ZM62.2592 45.2018H64.2092V46.5052H62.2592V45.2018ZM65.2699 49.769H62.6681V48.4629H65.2699V49.769Z" fill="#FFD050"/>
<path d="M279.835 14.6506C279.305 14.5828 278.695 14.5546 278.001 14.5546C277.307 14.5546 276.512 14.6167 275.524 14.7465C274.565 14.8706 273.555 15.0794 272.5 15.3671C271.473 15.621 270.632 16.0329 269.972 16.6028C269.312 17.1727 268.979 17.8724 268.979 18.6962C268.979 19.52 269.476 20.2027 270.469 20.8403C271.49 21.444 272.714 22.0139 274.136 22.5556C275.558 23.0634 276.98 23.6502 278.402 24.316C279.858 24.9818 281.076 25.9636 282.069 27.267C283.091 28.5365 283.604 30.0769 283.604 31.8825C283.604 35.0874 282.002 37.8127 278.797 40.0696C275.626 42.2871 271.608 43.3986 266.75 43.3986C264.307 43.3986 262.49 43.2689 261.3 43.015C261.001 42.7272 260.854 41.0345 260.854 37.9199C260.854 34.8053 260.922 32.8925 261.051 32.2549C261.153 31.9671 261.729 31.6229 262.784 31.2054C263.839 30.7935 264.866 30.5847 265.859 30.5847C265.859 34.3257 266.271 36.5995 267.1 37.3895C267.427 37.7055 268.059 37.8691 268.985 37.8691C271.101 37.8691 272.934 37.2992 274.486 36.1538C276.072 35.014 276.867 33.6599 276.867 32.1082C276.867 31.0587 276.354 30.139 275.332 29.349C274.306 28.5535 273.053 27.8764 271.563 27.3008C270.108 26.6971 268.657 26.0764 267.202 25.4445C265.746 24.7787 264.51 23.8759 263.483 22.7305C262.456 21.5907 261.949 20.2365 261.949 18.6849C261.949 16.3658 263.387 14.2556 266.259 12.3541C269.165 10.4187 273.363 9.45389 278.848 9.45389C280.134 9.45389 280.862 9.53288 281.031 9.69087C281.065 9.78679 281.082 10.0238 281.082 10.4018C281.082 10.7516 280.964 11.4457 280.732 12.4951C280.501 13.5446 280.202 14.2556 279.841 14.6393L279.835 14.6506Z" fill="#FFD050"/>
<path d="M293.84 10.6501C293.772 11.3779 293.693 13.381 293.591 16.648C296.068 16.648 297.31 16.6987 297.31 16.789C297.31 17.8667 297.146 18.8372 296.813 19.6892C296.48 20.513 296.17 20.9249 295.871 20.9249H293.54C293.473 25.6194 293.439 29.445 293.439 32.3959C293.439 35.3469 293.49 37.2653 293.586 38.2528C293.783 39.9004 294.46 41.2489 295.617 42.2984C295.617 42.6482 294.974 43.156 293.682 43.8218C292.429 44.4876 291.238 44.8205 290.11 44.8205C290.014 44.8205 289.811 44.6626 289.517 44.3466C289.252 44.0306 288.953 43.5059 288.626 42.778C288.327 42.0501 288.129 41.3335 288.033 40.6339C287.966 39.9342 287.932 37.4459 287.932 33.1633C287.932 28.8807 287.983 24.8351 288.079 21.0265L285.303 21.0716C285.139 20.9136 285.054 20.2309 285.054 19.0234C285.054 17.8159 285.201 17.0373 285.5 16.789C286.187 16.7571 287.004 16.7302 287.957 16.6988L288.129 16.6931C288.129 14.8537 288.079 13.6631 287.983 13.1215C287.881 12.5798 287.836 12.2638 287.836 12.1679C287.836 11.8519 288.395 11.4852 289.523 11.0733C290.68 10.6614 291.69 10.4526 292.547 10.4526C293.405 10.4526 293.84 10.5147 293.84 10.6444V10.6501Z" fill="#FFD050"/>
<path d="M311.258 40.0132L311.207 39.0145L311.156 38.9186C310.366 40.0922 309.356 41.0288 308.132 41.7285C306.941 42.4282 305.768 42.778 304.611 42.778C301.141 42.778 299.16 40.1938 298.664 35.0197C298.596 34.1959 298.562 32.0687 298.562 28.6437C298.562 25.2188 298.715 23.1875 299.008 22.5499C299.866 21.8841 301.254 21.5512 303.172 21.5512C303.934 21.5512 304.397 21.6302 304.56 21.7882C304.56 21.8164 304.543 22.2452 304.509 23.0747C304.346 25.484 304.261 27.3403 304.261 28.6437C304.261 29.9471 304.278 30.912 304.312 31.5496C304.346 32.1533 304.363 32.5483 304.363 32.7401C304.396 32.8939 304.439 33.1813 304.504 33.6076L304.509 33.6429C304.611 34.0887 304.741 34.4667 304.904 34.7827C305.401 35.7024 306.163 36.1651 307.184 36.1651C308.205 36.1651 309.164 35.6742 309.96 34.6924C310.784 33.6768 311.184 32.9602 311.15 32.5483V30.9289C311.15 25.1229 311.252 21.997 311.45 21.5512C311.613 21.2635 312.127 20.9644 312.984 20.6484C313.876 20.3325 314.75 20.1745 315.614 20.1745C316.477 20.1745 316.968 20.2365 317.103 20.3663L317.002 22.6007C316.804 27.1372 316.703 30.6411 316.703 33.1182C316.703 35.5952 316.77 37.1638 316.9 37.8296C317.131 39.4151 317.577 40.6847 318.237 41.6382C318.237 41.9542 317.56 42.462 316.206 43.1617C314.852 43.8613 313.695 44.2112 312.736 44.2112C312.471 44.2112 312.172 43.7316 311.844 42.7836C311.512 41.8301 311.314 40.9104 311.252 40.0245L311.258 40.0132Z" fill="#FFD050"/>
<path fill-rule="evenodd" clip-rule="evenodd" d="M334.109 21.4045L334.008 14.3628C334.008 12.3936 334.059 11.3667 334.155 11.2707C334.55 10.8871 335.198 10.5259 336.09 10.1761C337.015 9.79243 337.89 9.60623 338.719 9.60623C339.549 9.60623 339.961 9.6683 339.961 9.79807C339.695 15.0624 339.566 20.6654 339.566 26.5955C339.566 32.5257 339.662 36.0692 339.865 37.2089C340.096 38.9242 340.643 40.1881 341.501 41.0175C341.501 41.3335 340.807 41.8244 339.419 42.4902C338.065 43.1899 336.908 43.5397 335.949 43.5397C335.847 43.5397 335.701 43.4099 335.503 43.156C334.877 42.3604 334.493 41.2828 334.363 39.9173C334.363 39.8214 334.33 39.7762 334.262 39.7762L334.115 39.8721C332.727 41.7793 330.662 42.7272 327.92 42.7272C325.708 42.7272 323.953 41.8865 322.667 40.2051C321.375 38.5236 320.731 36.6334 320.731 34.5401C320.731 30.9515 321.888 27.9046 324.201 25.3993C326.515 22.8603 329.816 21.5287 334.115 21.4045H334.109ZM333.466 26.3078H333.664C334.024 26.3078 334.204 26.3404 334.211 26.4003C334.115 27.5465 334.064 29.8761 334.064 33.3947C334.064 33.9645 333.703 34.7432 332.975 35.725C332.281 36.7124 331.305 37.2033 330.148 37.2033C328.992 37.2033 328.112 36.8365 327.519 36.1087C326.961 35.3526 326.678 34.3821 326.678 33.2084C326.678 31.211 327.271 29.5635 328.461 28.2601C329.686 26.9567 331.35 26.3078 333.466 26.3078Z" fill="#FFD050"/>
<path d="M350.128 25.2583V25.2696L350.032 32.9715C350.032 35.4485 350.094 37.271 350.23 38.4446C350.393 39.5844 350.822 40.6677 351.516 41.6834C351.516 41.9993 350.839 42.5072 349.485 43.2068C348.131 43.9065 346.974 44.2563 346.015 44.2563C345.716 44.2563 345.422 43.7823 345.123 42.8288C344.824 41.8752 344.627 40.9724 344.531 40.1148C344.463 39.2571 344.429 36.3682 344.429 31.4537C344.429 26.5391 344.542 23.8533 344.774 23.4132C345.535 22.8433 346.873 22.5556 348.791 22.5556C349.553 22.5556 350.015 22.6515 350.179 22.8433L350.128 25.2583Z" fill="#FFD050"/>
<path fill-rule="evenodd" clip-rule="evenodd" d="M375 31.922C375 34.935 374.041 37.5531 372.122 39.7762C370.238 41.9655 367.659 43.0601 364.387 43.0601C361.114 43.0601 358.603 42.0896 356.752 40.1543C354.902 38.2189 353.976 35.7137 353.976 32.6329C353.976 29.5522 355.116 26.7817 357.396 24.4006C359.709 21.9913 362.812 20.7839 366.717 20.7839C368.302 20.8459 369.16 20.9418 369.296 21.0716C369.431 21.1958 369.493 21.5004 369.493 21.9744C369.493 22.4484 369.442 22.9731 369.346 23.543C369.843 23.543 370.469 23.8308 371.231 24.4006C372.026 24.9423 372.67 25.4953 373.166 26.0651C373.663 26.635 374.092 27.4476 374.453 28.4914C374.814 29.507 375 30.6468 375 31.9163V31.922ZM365.532 27.8764C366.26 27.8764 366.999 28.1134 367.761 28.593L367.766 28.5873C368.788 29.191 369.301 30.4606 369.301 32.3959C369.301 34.3313 368.805 35.7927 367.812 36.7745C366.852 37.7619 365.78 38.2528 364.686 38.2528C363.591 38.2528 362.733 38.0609 362.107 37.6829C360.454 36.7293 359.63 35.0197 359.63 32.5426C359.63 30.4493 360.211 28.813 361.368 27.6394C362.559 26.4658 363.828 25.879 365.182 25.879C365.086 26.2626 365.036 26.6576 365.036 27.0695C365.036 27.4814 365.069 27.7466 365.137 27.8764H365.532Z" fill="#FFD050"/>
<path d="M347.6 13.4092C348.526 13.4092 349.271 13.697 349.829 14.2669C350.388 14.8367 350.67 15.5816 350.67 16.5013C350.67 17.421 350.292 18.2166 349.53 18.8824C348.802 19.5143 347.979 19.8359 347.053 19.8359C346.128 19.8359 345.434 19.5651 344.87 19.0291C344.339 18.4592 344.08 17.7087 344.08 16.7947C344.08 15.8806 344.441 15.0794 345.169 14.4136C345.896 13.7478 346.703 13.4149 347.595 13.4149L347.6 13.4092Z" fill="#FFD050"/>
<path fill-rule="evenodd" clip-rule="evenodd" d="M229.177 34.9745L229.076 17.4153C229.076 13.4487 229.161 11.3836 229.324 11.2256C229.719 10.8476 230.362 10.4808 231.26 10.131C232.185 9.78114 233.059 9.60623 233.889 9.60623C234.718 9.60623 235.13 9.6683 235.13 9.79807C235.062 10.114 234.967 11.9253 234.831 15.2261C234.73 18.493 234.696 20.5243 234.73 21.3199H235.525C239.193 21.3199 242.183 22.1268 244.497 23.7461C245.422 24.4119 246.229 25.4106 246.923 26.7422C247.617 28.04 247.961 29.5635 247.961 31.3126C247.961 34.3257 246.692 36.8478 244.147 38.8791C241.602 40.8765 238.482 42.163 234.78 42.7328C234.78 43.4607 234.763 43.8613 234.73 43.9234C234.301 44.3353 233.539 44.6513 232.45 44.877C231.395 45.097 230.515 45.2099 229.821 45.2099C229.127 45.2099 228.828 45.1647 228.828 45.0688C229.059 44.1773 229.177 40.8144 229.177 34.9802V34.9745ZM237.551 37.1187C236.625 37.3669 235.734 37.4967 234.876 37.4967C234.747 36.639 234.679 34.0661 234.679 29.7835V26.3586L236.958 26.2175C238.313 26.2175 239.497 26.5955 240.524 27.3573C241.579 28.119 242.11 29.2136 242.11 30.6412C242.11 32.0687 241.862 33.231 241.365 34.1169C240.902 35.0027 240.378 35.6573 239.78 36.0692C239.221 36.4811 238.476 36.8309 237.551 37.1187Z" fill="#1F1F21"/>
<path fill-rule="evenodd" clip-rule="evenodd" d="M224.071 41.8301C222.948 42.5579 220.748 42.9247 217.481 42.9247C214.214 42.9247 211.697 41.9881 209.948 40.1148C208.199 38.2415 207.319 35.7532 207.319 32.6442C207.319 29.5352 208.363 26.793 210.445 24.5079C212.561 22.1888 215.517 21.0321 219.315 21.0321C220.866 21.0321 222.288 21.4271 223.58 22.2227C224.901 23.0126 225.561 24.4119 225.561 26.4093C225.561 28.4068 224.652 30.3252 222.835 32.2662C221.052 34.2015 218.604 35.6742 215.5 36.6955C215.5 37.0735 215.895 37.3895 216.691 37.649C217.515 37.8691 218.327 37.9819 219.117 37.9819C221.628 37.9819 223.608 37.5531 225.064 36.6955C225.098 36.6616 225.149 36.6447 225.211 36.6447C225.273 36.6447 225.312 36.9437 225.312 37.5475C225.312 39.3869 224.901 40.8144 224.071 41.8301ZM214.654 27.3121C215.675 25.9805 216.866 25.3147 218.22 25.3147C219.246 25.3147 219.759 25.7766 219.76 26.6947C219.759 28.1549 218.98 29.5305 217.43 30.833C215.878 32.1025 214.507 32.7514 213.317 32.7853C213.187 32.7853 213.119 32.5652 213.119 32.1195C213.119 30.2462 213.627 28.6437 214.654 27.3121Z" fill="#1F1F21"/>
<path d="M205.327 9.18305C205.327 12.3259 204.701 16.6198 203.442 22.0816C202.184 27.504 200.898 32.2323 199.577 36.261C198.257 40.2897 197.394 42.4789 196.999 42.8288C196.604 43.2068 195.678 43.5454 194.223 43.8275C192.801 44.1152 191.712 44.2563 190.95 44.2563C190.188 44.2563 189.81 44.2112 189.81 44.1152C189.743 43.8613 189.432 42.242 188.868 39.2628C187.215 30.9176 186.273 26.494 186.041 25.9862C185.81 25.4445 185.663 25.1793 185.595 25.1793L185.347 25.4671C184.523 27.4363 183.581 30.5114 182.52 34.6981C181.493 38.8509 180.986 41.232 180.986 41.8357C180.986 41.9598 180.67 42.1348 180.043 42.3604C178.322 42.9642 176.641 43.2632 174.988 43.2632C174.627 43.2632 174.395 43.2181 174.294 43.1222C173.402 42.2645 172.031 37.6039 170.18 29.129C168.364 20.6259 167.455 14.6449 167.455 11.1861C167.455 11.124 167.619 10.9943 167.952 10.8024C169.074 10.2608 170.299 10.0125 171.619 10.0407C172.973 10.0407 173.65 10.0689 173.65 10.1366C173.882 14.2612 174.361 18.6059 175.089 23.1762C175.851 27.7127 176.573 30.8217 177.267 32.5031C177.335 32.7232 177.397 32.836 177.465 32.836C177.566 32.836 177.662 32.7232 177.764 32.5031C180.472 22.4427 182.125 17.1163 182.718 16.5125C183.908 16.0668 185.579 15.8467 187.723 15.8467C188.913 15.9088 189.556 15.9878 189.658 16.0837C189.76 16.1796 190.087 17.5113 190.651 20.0842C191.215 22.6233 191.825 25.4445 192.485 28.5535L192.83 30.1592L192.852 30.2636L192.854 30.2708C193.296 32.3301 193.572 33.614 193.675 34.1225C193.839 34.7263 194.053 34.6924 194.319 34.0266C194.877 32.537 195.594 29.823 196.451 25.8902C197.309 21.9575 197.738 18.2448 197.738 14.7521C197.738 14.4023 197.422 14.0694 196.796 13.7534C196.203 13.4036 195.588 13.2005 194.962 13.1327C194.928 13.0368 194.911 12.845 194.911 12.5629C194.911 12.2469 194.979 11.8011 195.109 11.2313C195.272 10.6275 195.408 10.2777 195.504 10.1818C198.511 9.42004 201.518 9.04199 204.526 9.04199C205.056 9.10406 205.316 9.15484 205.316 9.18305H205.327Z" fill="#1F1F21"/>
<path fill-rule="evenodd" clip-rule="evenodd" d="M138.306 42.1178C137.945 42.4677 137.217 42.7385 136.123 42.9247C135.034 43.1447 134.125 43.2576 133.397 43.2576C132.67 43.2576 132.043 43.1617 131.513 42.9698L131.812 15.5082C131.383 15.0004 130.954 14.1597 130.525 12.986C130.131 11.8124 129.933 11.0958 129.933 10.8476C129.933 10.5598 129.967 10.3849 130.035 10.3228C130.102 10.2269 131.14 10.131 133.155 10.0351C135.203 9.90528 137.268 9.84321 139.35 9.84321C141.432 9.84321 143.283 9.95606 144.902 10.1761C146.522 10.3962 148.209 10.7968 149.958 11.3667C151.707 11.9083 153.095 12.7773 154.122 13.9847C155.149 15.1922 155.657 16.7439 155.657 18.651C155.657 20.5582 154.963 22.2678 153.575 23.8872C152.187 25.5066 150.302 26.8664 147.927 27.9779C147.927 28.4858 148.965 30.7709 151.047 34.8335C153.129 38.8622 154.782 41.4633 156.001 42.6369C156.035 42.6651 156.052 42.7159 156.052 42.778C156.052 42.8739 155.787 43.0319 155.256 43.252C153.8 43.9178 152.232 44.2507 150.545 44.2507L149.303 44.1547C148.576 43.4551 147.306 41.1417 145.489 37.2089C143.706 33.2762 142.713 30.8612 142.516 29.9754C142.121 30.1954 140.552 30.5283 137.804 30.9741C137.872 37.35 138.036 41.0627 138.301 42.1122L138.306 42.1178ZM146.336 23.0803C144.519 24.474 141.658 25.3486 137.759 25.6984H137.753C137.753 20.0221 137.855 16.5013 138.052 15.1358C139.243 14.944 140.417 14.848 141.573 14.848C143.757 14.848 145.557 15.1809 146.979 15.8467C148.401 16.4843 149.112 17.5338 149.112 18.8936C149.112 20.2535 148.186 21.6528 146.336 23.0803Z" fill="#1F1F21"/>
<path d="M122.711 14.6562C122.18 14.5885 121.571 14.5603 120.877 14.5603C120.183 14.5603 119.387 14.6223 118.4 14.7521C117.441 14.8762 116.436 15.085 115.376 15.3728C114.349 15.6267 113.508 16.0386 112.848 16.6085C112.188 17.1784 111.855 17.878 111.855 18.7018C111.855 19.5256 112.351 20.2083 113.344 20.8459C114.371 21.4497 115.59 22.0195 117.012 22.5612C118.434 23.069 119.856 23.6558 121.272 24.3217C122.728 24.9875 123.946 25.9692 124.939 27.2726C125.966 28.5422 126.474 30.0826 126.474 31.8881C126.474 35.093 124.872 37.8183 121.667 40.0753C118.496 42.2927 114.478 43.4043 109.62 43.4043C107.177 43.4043 105.36 43.2745 104.17 43.0206C103.871 42.7329 103.724 41.0401 103.724 37.9255C103.724 34.8109 103.792 32.8981 103.921 32.2605C104.023 31.9728 104.599 31.6286 105.654 31.211C106.709 30.7992 107.736 30.5904 108.729 30.5904C108.729 34.3313 109.141 36.6052 109.97 37.3951C110.303 37.7111 110.929 37.8747 111.855 37.8747C113.971 37.8747 115.804 37.3048 117.356 36.1594C118.942 35.0197 119.737 33.6655 119.737 32.1138C119.737 31.0643 119.224 30.1446 118.202 29.3547C117.176 28.5591 115.923 27.882 114.433 27.3065C112.978 26.7027 111.527 26.0821 110.072 25.4501C108.616 24.7843 107.38 23.8815 106.353 22.7361C105.326 21.5964 104.819 20.2422 104.819 18.6905C104.819 16.3715 106.257 14.2612 109.129 12.3597C112.035 10.4244 116.233 9.45953 121.718 9.45953C123.004 9.45953 123.732 9.53853 123.901 9.69651C123.935 9.79244 123.952 10.0294 123.952 10.4075C123.952 10.7573 123.839 11.4513 123.608 12.5008C123.377 13.5503 123.077 14.2612 122.716 14.6449L122.711 14.6562Z" fill="#1F1F21"/>
</svg>
