<svg width="198" height="120" viewBox="0 0 198 120" fill="none" xmlns="http://www.w3.org/2000/svg">
<g clip-path="url(#clip0_132_2)">
<path d="M13.8269 97.7496C13.4406 97.7003 12.9968 97.6798 12.4914 97.6798C11.986 97.6798 11.4067 97.725 10.6876 97.8195C9.98904 97.9099 9.25764 98.0619 8.48514 98.2715C7.7373 98.4564 7.12505 98.7563 6.64429 99.1713C6.16354 99.5864 5.92111 100.096 5.92111 100.696C5.92111 101.296 6.2827 101.793 7.00589 102.257C7.75373 102.697 8.64128 103.112 9.67676 103.506C10.7122 103.876 11.7477 104.304 12.7791 104.788C13.8392 105.273 14.7267 105.988 15.4499 106.937C16.1978 107.862 16.5676 108.984 16.5676 110.299C16.5676 112.633 15.4006 114.617 13.0667 116.261C10.7574 117.876 7.8318 118.685 4.29393 118.685C2.51472 118.685 1.19162 118.591 0.324613 118.406C0.106835 118.196 0 116.963 0 114.695C0 112.427 0.0493083 111.034 0.143816 110.57C0.217778 110.36 0.636899 110.11 1.40529 109.806C2.17367 109.506 2.92152 109.354 3.64471 109.354C3.64471 112.078 3.94466 113.734 4.54869 114.309C4.79112 114.539 5.24723 114.658 5.92111 114.658C7.46199 114.658 8.79742 114.243 9.92741 113.409C11.082 112.579 11.6614 111.593 11.6614 110.463C11.6614 109.699 11.2875 109.029 10.5438 108.454C9.79592 107.874 8.88371 107.381 7.79893 106.962C6.7388 106.522 5.68278 106.07 4.62265 105.61C3.56253 105.125 2.66265 104.468 1.91481 103.634C1.16696 102.804 0.797151 101.818 0.797151 100.688C0.797151 98.9988 1.84495 97.462 3.93645 96.0772C6.0526 94.6678 9.10971 93.9652 13.1037 93.9652C14.0405 93.9652 14.5706 94.0227 14.6939 94.1378C14.7185 94.2076 14.7309 94.3802 14.7309 94.6555C14.7309 94.9103 14.6487 95.4157 14.4802 96.18C14.3117 96.9442 14.094 97.462 13.831 97.7414L13.8269 97.7496ZM24.7856 105.791C27.625 105.536 29.7083 104.899 31.0314 103.884C32.3791 102.845 33.053 101.826 33.053 100.835C33.053 99.8452 32.5353 99.0809 31.4998 98.6166C30.4643 98.1318 29.1535 97.8893 27.5633 97.8893C26.721 97.8893 25.8663 97.9592 24.9993 98.0989C24.8555 99.0933 24.7815 101.657 24.7815 105.791H24.7856ZM25.1842 117.748C24.9212 118.003 24.3912 118.2 23.594 118.336C22.801 118.496 22.1394 118.578 21.6094 118.578C21.0793 118.578 20.6232 118.508 20.237 118.369L20.4547 98.3701C20.1424 98.0003 19.8302 97.388 19.5179 96.5333C19.2302 95.6787 19.0864 95.1568 19.0864 94.976C19.0864 94.7665 19.1111 94.6391 19.1604 94.5939C19.2097 94.524 19.9658 94.4542 21.4327 94.3843C22.9243 94.2898 24.4282 94.2446 25.9444 94.2446C27.4606 94.2446 28.8084 94.3268 29.9877 94.487C31.167 94.6473 32.3956 94.939 33.6694 95.354C34.9432 95.7485 35.954 96.3813 36.7018 97.2606C37.4497 98.14 37.8195 99.27 37.8195 100.659C37.8195 102.048 37.3141 103.293 36.3032 104.472C35.2924 105.651 33.92 106.642 32.1901 107.451C32.1901 107.821 32.9462 109.485 34.4624 112.443C35.9786 115.377 37.1826 117.272 38.0701 118.126C38.0948 118.147 38.1071 118.184 38.1071 118.229C38.1071 118.299 37.914 118.414 37.5277 118.574C36.4676 119.059 35.3253 119.301 34.0967 119.301L33.1927 119.232C32.6626 118.722 31.7381 117.037 30.415 114.173C29.1166 111.309 28.3934 109.551 28.2496 108.906C27.9619 109.066 26.8196 109.308 24.8185 109.633C24.8678 114.276 24.987 116.98 25.1801 117.744L25.1842 117.748ZM73.9912 93.7639C73.9912 96.0526 73.5351 99.1796 72.6188 103.157C71.7025 107.106 70.7656 110.549 69.8041 113.483C68.8426 116.417 68.2139 118.011 67.9263 118.266C67.6387 118.541 66.9648 118.788 65.9047 118.993C64.8692 119.203 64.0761 119.306 63.5214 119.306C62.9667 119.306 62.6914 119.273 62.6914 119.203C62.6421 119.018 62.4161 117.839 62.0052 115.669C60.8013 109.592 60.115 106.37 59.9466 106.001C59.7781 105.606 59.6713 105.413 59.622 105.413L59.4412 105.623C58.8413 107.057 58.155 109.296 57.3825 112.345C56.6347 115.369 56.2649 117.103 56.2649 117.543C56.2649 117.633 56.0348 117.761 55.5787 117.925C54.3254 118.365 53.1009 118.582 51.897 118.582C51.634 118.582 51.4655 118.55 51.3916 118.48C50.7424 117.855 49.7439 114.461 48.3961 108.289C47.073 102.097 46.4114 97.7414 46.4114 95.2226C46.4114 95.1774 46.5306 95.0829 46.773 94.9431C47.5907 94.5487 48.4824 94.3679 49.4439 94.3884C50.4301 94.3884 50.9232 94.409 50.9232 94.4583C51.0916 97.462 51.4409 100.626 51.971 103.954C52.5257 107.258 53.0516 109.522 53.557 110.746C53.6064 110.907 53.6516 110.989 53.7009 110.989C53.7748 110.989 53.8447 110.907 53.9186 110.746C55.891 103.42 57.0949 99.5411 57.5264 99.1015C58.3934 98.7769 59.6096 98.6166 61.1711 98.6166C62.0381 98.6618 62.5065 98.7193 62.5805 98.7892C62.6544 98.859 62.8927 99.8288 63.3037 101.702C63.7146 103.552 64.1583 105.606 64.6391 107.87C65.1198 110.11 65.4116 111.461 65.5061 111.926C65.6253 112.365 65.7814 112.341 65.9745 111.856C66.3813 110.771 66.9032 108.795 67.5277 105.931C68.1523 103.067 68.4646 100.363 68.4646 97.8195C68.4646 97.5647 68.2345 97.3223 67.7784 97.0922C67.3469 96.8374 66.899 96.6895 66.4429 96.6402C66.4183 96.5703 66.406 96.4306 66.406 96.2252C66.406 95.9951 66.4553 95.6704 66.5498 95.2554C66.6689 94.8158 66.7676 94.561 66.8374 94.4912C69.0275 93.9364 71.2176 93.6611 73.4077 93.6611C73.794 93.7063 73.983 93.7433 73.983 93.7639H73.9912ZM84.5021 106.518C84.5021 105.849 84.1282 105.512 83.3804 105.512C82.3942 105.512 81.5272 105.996 80.7835 106.966C80.0356 107.936 79.6658 109.103 79.6658 110.467C79.6658 110.792 79.7151 110.952 79.8096 110.952C80.6766 110.927 81.6751 110.455 82.8051 109.53C83.9351 108.581 84.5021 107.578 84.5021 106.514V106.518ZM87.6414 117.539C86.8237 118.069 85.2212 118.336 82.8421 118.336C80.4629 118.336 78.6303 117.654 77.3565 116.29C76.0827 114.925 75.4417 113.113 75.4417 110.849C75.4417 108.585 76.2019 106.588 77.7181 104.924C79.259 103.235 81.4121 102.393 84.1775 102.393C85.3075 102.393 86.343 102.68 87.2839 103.26C88.2454 103.835 88.7262 104.854 88.7262 106.309C88.7262 107.763 88.0646 109.16 86.7415 110.574C85.4431 111.983 83.6598 113.056 81.3998 113.799C81.3998 114.075 81.6874 114.305 82.2668 114.494C82.8667 114.654 83.4584 114.736 84.0337 114.736C85.8622 114.736 87.3045 114.424 88.3646 113.799C88.3893 113.775 88.4262 113.762 88.4714 113.762C88.5166 113.762 88.5454 113.98 88.5454 114.42C88.5454 115.759 88.2454 116.799 87.6414 117.539ZM91.3601 112.546L91.2861 99.7589C91.2861 96.8703 91.3478 95.3664 91.4669 95.2513C91.7546 94.976 92.223 94.7089 92.8763 94.4542C93.5502 94.1994 94.1871 94.072 94.7911 94.072C95.3951 94.072 95.6951 94.1172 95.6951 94.2117C95.6458 94.4418 95.5759 95.7608 95.4773 98.1646C95.4034 100.544 95.3787 102.023 95.4034 102.602H95.9827C98.6536 102.602 100.831 103.19 102.516 104.369C103.19 104.854 103.778 105.581 104.283 106.551C104.788 107.496 105.039 108.606 105.039 109.879C105.039 112.074 104.114 113.91 102.261 115.39C100.408 116.844 98.1359 117.781 95.4403 118.196C95.4403 118.726 95.428 119.018 95.4034 119.063C95.0911 119.363 94.5364 119.593 93.7433 119.758C92.9749 119.918 92.3339 120 91.8285 120C91.3231 120 91.1053 119.967 91.1053 119.897C91.2738 119.248 91.3601 116.799 91.3601 112.55V112.546ZM95.5102 114.383C96.1348 114.383 96.784 114.288 97.4579 114.108C98.1318 113.898 98.6741 113.643 99.0809 113.343C99.5165 113.043 99.8986 112.567 100.236 111.922C100.597 111.277 100.778 110.43 100.778 109.39C100.778 108.351 100.392 107.554 99.6233 106.999C98.8755 106.444 98.0126 106.169 97.0264 106.169L95.3664 106.272V108.766C95.3664 111.885 95.4157 113.758 95.5102 114.383ZM128.251 97.7455C127.865 97.6962 127.421 97.6757 126.915 97.6757C126.41 97.6757 125.831 97.7209 125.112 97.8154C124.413 97.9058 123.678 98.0578 122.909 98.2673C122.161 98.4523 121.549 98.7522 121.068 99.1672C120.588 99.5822 120.345 100.092 120.345 100.692C120.345 101.292 120.707 101.789 121.43 102.253C122.174 102.693 123.065 103.108 124.101 103.502C125.136 103.872 126.172 104.299 127.207 104.784C128.267 105.269 129.155 105.984 129.878 106.933C130.622 107.858 130.996 108.98 130.996 110.294C130.996 112.628 129.829 114.613 127.495 116.257C125.186 117.872 122.26 118.681 118.722 118.681C116.943 118.681 115.62 118.586 114.753 118.402C114.535 118.192 114.428 116.959 114.428 114.691C114.428 112.423 114.477 111.03 114.572 110.566C114.646 110.356 115.065 110.105 115.833 109.801C116.602 109.501 117.35 109.349 118.073 109.349C118.073 112.074 118.373 113.73 118.977 114.305C119.215 114.535 119.675 114.654 120.349 114.654C121.89 114.654 123.226 114.239 124.356 113.405C125.51 112.575 126.09 111.589 126.09 110.459C126.09 109.695 125.716 109.025 124.972 108.45C124.224 107.87 123.312 107.377 122.227 106.958C121.167 106.518 120.111 106.066 119.051 105.606C117.991 105.121 117.091 104.464 116.343 103.63C115.595 102.8 115.225 101.813 115.225 100.683C115.225 98.9946 116.273 97.4579 118.365 96.0731C120.481 94.6637 123.538 93.9611 127.532 93.9611C128.469 93.9611 128.999 94.0186 129.122 94.1337C129.147 94.2035 129.159 94.3761 129.159 94.6514C129.159 94.9062 129.073 95.4116 128.904 96.1759C128.736 96.9401 128.518 97.4579 128.255 97.7373L128.251 97.7455ZM138.45 94.8322C138.4 95.3623 138.343 96.821 138.269 99.2001C140.073 99.2001 140.977 99.2371 140.977 99.3028C140.977 100.088 140.857 100.794 140.615 101.415C140.373 102.015 140.147 102.315 139.929 102.315H138.232C138.182 105.733 138.158 108.519 138.158 110.668C138.158 112.817 138.195 114.214 138.265 114.934C138.408 116.133 138.902 117.115 139.744 117.88C139.744 118.134 139.275 118.504 138.334 118.989C137.422 119.474 136.555 119.716 135.733 119.716C135.664 119.716 135.516 119.601 135.302 119.371C135.109 119.141 134.891 118.759 134.653 118.229C134.435 117.699 134.291 117.177 134.221 116.668C134.172 116.158 134.147 114.346 134.147 111.227C134.147 108.108 134.184 105.162 134.254 102.389L132.233 102.422C132.113 102.307 132.052 101.809 132.052 100.93C132.052 100.051 132.159 99.4836 132.376 99.3028C132.906 99.2782 133.543 99.2576 134.291 99.233C134.291 97.8934 134.254 97.0264 134.184 96.632C134.11 96.2375 134.078 96.0074 134.078 95.9375C134.078 95.7074 134.484 95.4403 135.306 95.1404C136.148 94.8404 136.884 94.6884 137.509 94.6884C138.133 94.6884 138.45 94.7336 138.45 94.8281V94.8322ZM151.134 116.216L151.097 115.488L151.06 115.418C150.485 116.273 149.749 116.955 148.858 117.465C147.991 117.974 147.136 118.229 146.294 118.229C143.767 118.229 142.324 116.347 141.963 112.579C141.913 111.979 141.889 110.43 141.889 107.936C141.889 105.442 142 103.962 142.213 103.498C142.838 103.013 143.849 102.771 145.246 102.771C145.801 102.771 146.138 102.828 146.257 102.943C146.257 102.964 146.244 103.276 146.22 103.88C146.101 105.635 146.039 106.987 146.039 107.936C146.039 108.885 146.051 109.588 146.076 110.052C146.101 110.492 146.113 110.779 146.113 110.919C146.138 111.034 146.17 111.252 146.22 111.576C146.294 111.901 146.388 112.176 146.507 112.407C146.869 113.076 147.424 113.413 148.167 113.413C148.911 113.413 149.61 113.056 150.189 112.341C150.789 111.601 151.081 111.079 151.056 110.779V109.6C151.056 105.372 151.13 103.095 151.274 102.771C151.393 102.561 151.767 102.344 152.391 102.113C153.041 101.883 153.678 101.768 154.306 101.768C154.935 101.768 155.292 101.813 155.391 101.908L155.317 103.535C155.173 106.839 155.099 109.39 155.099 111.194C155.099 112.998 155.149 114.141 155.243 114.625C155.412 115.78 155.736 116.705 156.217 117.399C156.217 117.629 155.724 117.999 154.738 118.508C153.752 119.018 152.909 119.273 152.211 119.273C152.018 119.273 151.8 118.923 151.561 118.233C151.319 117.539 151.175 116.869 151.13 116.224L151.134 116.216ZM167.776 102.664L167.702 97.5359C167.702 96.1019 167.739 95.3541 167.809 95.2842C168.096 95.0048 168.569 94.7418 169.218 94.487C169.892 94.2076 170.529 94.072 171.133 94.072C171.737 94.072 172.037 94.1172 172.037 94.2117C171.844 98.0455 171.749 102.126 171.749 106.444C171.749 110.763 171.819 113.343 171.967 114.173C172.135 115.423 172.534 116.343 173.158 116.947C173.158 117.177 172.653 117.535 171.642 118.019C170.656 118.529 169.814 118.784 169.115 118.784C169.041 118.784 168.934 118.689 168.791 118.504C168.334 117.925 168.055 117.14 167.961 116.146C167.961 116.076 167.936 116.043 167.887 116.043L167.78 116.113C166.769 117.502 165.265 118.192 163.268 118.192C161.657 118.192 160.379 117.58 159.443 116.355C158.502 115.131 158.033 113.754 158.033 112.23C158.033 109.616 158.875 107.398 160.56 105.573C162.245 103.724 164.649 102.754 167.78 102.664H167.776ZM167.85 106.305C167.85 106.259 167.718 106.235 167.451 106.235H167.307C165.766 106.235 164.554 106.707 163.662 107.656C162.795 108.606 162.364 109.805 162.364 111.26C162.364 112.115 162.57 112.822 162.976 113.372C163.408 113.902 164.049 114.169 164.891 114.169C165.733 114.169 166.444 113.812 166.95 113.093C167.48 112.378 167.743 111.811 167.743 111.396C167.743 108.832 167.78 107.135 167.85 106.301V106.305ZM177.6 96.8415C178.274 96.8415 178.817 97.0511 179.223 97.4661C179.63 97.8811 179.836 98.4235 179.836 99.0933C179.836 99.763 179.56 100.342 179.006 100.827C178.476 101.287 177.876 101.522 177.202 101.522C176.528 101.522 176.022 101.324 175.612 100.934C175.225 100.519 175.036 99.9726 175.036 99.3069C175.036 98.6413 175.299 98.0578 175.829 97.5729C176.359 97.0881 176.947 96.8456 177.596 96.8456L177.6 96.8415ZM179.441 105.47L179.371 111.088C179.371 112.891 179.417 114.219 179.515 115.073C179.634 115.903 179.947 116.692 180.452 117.432C180.452 117.662 179.959 118.032 178.973 118.541C177.987 119.051 177.144 119.306 176.446 119.306C176.228 119.306 176.014 118.96 175.796 118.266C175.579 117.572 175.435 116.914 175.365 116.29C175.316 115.665 175.291 113.561 175.291 109.982C175.291 106.403 175.373 104.447 175.542 104.127C176.096 103.712 177.07 103.502 178.467 103.502C179.022 103.502 179.359 103.572 179.478 103.712L179.441 105.479V105.47ZM197.554 110.323C197.554 112.517 196.855 114.424 195.458 116.043C194.086 117.637 192.208 118.434 189.825 118.434C187.441 118.434 185.613 117.728 184.265 116.318C182.917 114.909 182.244 113.084 182.244 110.841C182.244 108.597 183.074 106.58 184.734 104.846C186.418 103.091 188.678 102.212 191.522 102.212C192.676 102.257 193.301 102.327 193.4 102.422C193.498 102.512 193.543 102.734 193.543 103.079C193.543 103.424 193.506 103.806 193.437 104.221C193.798 104.221 194.254 104.431 194.809 104.846C195.388 105.24 195.857 105.643 196.218 106.058C196.58 106.473 196.892 107.065 197.155 107.825C197.418 108.565 197.554 109.395 197.554 110.319V110.323ZM192.282 107.899C191.727 107.55 191.189 107.377 190.659 107.377H190.371C190.322 107.283 190.297 107.089 190.297 106.789C190.297 106.49 190.334 106.202 190.404 105.922C189.418 105.922 188.493 106.35 187.626 107.204C186.784 108.059 186.361 109.251 186.361 110.775C186.361 112.579 186.961 113.824 188.165 114.519C188.621 114.794 189.245 114.934 190.042 114.934C190.84 114.934 191.62 114.576 192.319 113.857C193.042 113.142 193.404 112.078 193.404 110.668C193.404 109.259 193.03 108.334 192.286 107.895L192.282 107.899Z" fill="url(#paint0_linear_132_2)"/>
<path d="M53.9803 14.1063V39.4836C67.0018 48.8029 90.7766 55.8663 138.302 55.8663C111.609 59.6384 87.8469 56.9757 72.8736 53.9392C53.0763 49.9246 25.3486 34.9801 25.3486 16.0211C25.3486 6.18407 32.9215 3.23789 32.9215 3.23789C32.9215 3.23789 38.8467 0.197214 38.8467 0.00408936C31.6025 8.74399 32.9955 11.082 32.8188 16.0211C35.2226 24.8185 41.1519 30.7478 46.1485 35.5348V8.01669H137.64V49.148L131.135 50.7218V14.1063H53.9803Z" fill="#1F1F21"/>
<path fill-rule="evenodd" clip-rule="evenodd" d="M122.905 21.8313C120.431 19.3618 117.083 17.9729 113.59 17.9729C110.097 17.9729 106.748 19.3618 104.279 21.8313C101.809 24.3008 100.42 27.6538 100.42 31.1464C100.42 34.6391 101.809 37.988 104.279 40.4575C106.748 42.927 110.097 44.3159 113.59 44.3159C117.083 44.3159 120.431 42.927 122.905 40.4575C125.375 37.988 126.759 34.6391 126.759 31.1464C126.759 27.6538 125.375 24.3008 122.905 21.8313ZM122.934 25.5089C123.76 26.8772 124.277 28.4139 124.446 30.0165H119.215C119.178 28.9974 119.088 28.0113 118.948 27.0785C120.374 26.7333 121.681 26.2279 122.806 25.5828C122.852 25.5582 122.893 25.5335 122.934 25.5089ZM121.307 23.4297C121.393 23.516 121.479 23.6064 121.561 23.6968C120.678 24.1816 119.647 24.5761 118.517 24.8596C118.097 23.1831 117.502 21.7532 116.758 20.7013C118.459 21.219 120.025 22.1477 121.307 23.4297ZM113.59 20.9848C114.56 20.9848 115.607 22.6613 116.273 25.2582C115.62 25.3322 114.95 25.3691 114.264 25.3691C113.117 25.3691 112.004 25.2623 110.956 25.0651C111.626 22.5791 112.645 20.9848 113.59 20.9848ZM114.264 27.625C115.098 27.625 115.92 27.5757 116.717 27.4812C116.832 28.2783 116.914 29.1289 116.951 30.0165H110.229C110.27 29.0508 110.36 28.1304 110.492 27.2716C111.692 27.5058 112.961 27.625 114.264 27.625ZM110.418 20.7054C109.736 21.6792 109.177 22.9736 108.762 24.4898C107.763 24.1405 106.876 23.6968 106.14 23.1749C107.369 22.0244 108.832 21.1862 110.418 20.7054ZM104.653 24.8884C105.668 25.6362 106.909 26.2567 108.289 26.7087C108.121 27.7524 108.01 28.8618 107.969 30.0165H102.738C102.931 28.1674 103.589 26.4046 104.653 24.8884ZM102.738 32.2723H107.969C108.01 33.4352 108.121 34.5528 108.293 35.6047C106.913 36.0526 105.68 36.6649 104.665 37.4168C103.597 35.9006 102.931 34.1296 102.738 32.2723ZM106.153 39.1262C106.888 38.6084 107.772 38.1688 108.77 37.8277C109.185 39.3316 109.74 40.6136 110.418 41.5834C108.84 41.1026 107.377 40.2685 106.153 39.1262ZM113.59 41.3039C112.649 41.3039 111.63 39.7179 110.96 37.2483C112.004 37.0511 113.117 36.9443 114.264 36.9443C114.946 36.9443 115.616 36.9813 116.269 37.0552C115.603 39.6357 114.56 41.3039 113.59 41.3039ZM114.264 34.6884C112.961 34.6884 111.696 34.8076 110.496 35.0377C110.36 34.1707 110.27 33.242 110.229 32.2723H116.951C116.914 33.1681 116.832 34.0269 116.713 34.8322C115.916 34.7377 115.098 34.6884 114.264 34.6884ZM121.307 38.8591C120.029 40.137 118.463 41.0656 116.766 41.5834C117.498 40.5356 118.089 39.1179 118.508 37.4538C119.634 37.7291 120.662 38.1195 121.545 38.6084C121.471 38.6947 121.389 38.7769 121.307 38.8591ZM122.921 36.8005C122.885 36.7758 122.843 36.7511 122.806 36.7306C121.681 36.0855 120.374 35.5801 118.948 35.2349C119.088 34.294 119.178 33.2996 119.215 32.2723H124.446C124.277 33.883 123.756 35.428 122.921 36.8005Z" fill="#1F1F21"/>
<path fill-rule="evenodd" clip-rule="evenodd" d="M149.807 28.9193C149.807 28.9193 152.987 32.4284 154.088 35.1732C155.736 39.2823 155.942 41.345 154.664 46.4895C152.387 55.6691 142.896 58.8001 131.698 62.5311C125.329 64.6555 98.1153 66.1553 83.7748 65.165C64.4583 63.8378 43.8063 59.4453 41.4847 57.8921C41.8135 58.8823 64.5323 69.085 80.9807 70.4328H82.0326V74.6446H76.658V72.5695H75.113V74.6446H70.1699V71.9778H68.6249V74.6446H64.6062V71.3861H62.4408V74.6446H56.3019V67.4702L44.7761 87.2264H140.59L134.879 70.3753C154.462 65.1116 160.585 57.8633 162.463 50.2657C166.272 34.8445 149.807 28.9193 149.807 28.9193ZM58.2783 80.0192H53.0475V77.9194H58.2783V80.0192ZM66.1389 80.0192H60.9122V77.9194H66.1389V80.0192ZM74.0406 80.0192H68.8139V77.9194H74.0406V80.0192ZM81.9422 80.0192H76.7155V77.9194H81.9422V80.0192ZM122.654 72.6763V74.7719H119.519V72.6763H122.654ZM89.848 80.0192H84.6172V77.9194H89.848V80.0192ZM89.848 74.7719H85.6609V72.6763H89.848V74.7719ZM95.8102 80.0192H92.5188V77.9194H95.8102V80.0192ZM97.3593 74.7719H93.1763V72.6763H97.3593V74.7719ZM102.627 80.0192H98.4441V77.9194H102.627V80.0192ZM104.603 74.7719H100.42V72.6763H104.603V74.7719ZM109.214 80.0192H105.031V77.9194H109.214V80.0192ZM110.804 74.7719H107.665V72.6763H110.804V74.7719ZM115.801 80.0192H111.613V77.9194H115.801V80.0192ZM116.729 74.7719H113.59V72.6763H116.729V74.7719ZM123.431 80.0192H118.2V77.9194H123.431V80.0192ZM125.444 72.6763H128.58V74.7719H125.444V72.6763ZM130.285 80.0192H126.102V77.9194H130.285V80.0192Z" fill="url(#paint1_linear_132_2)"/>
</g>
<defs>
<linearGradient id="paint0_linear_132_2" x1="0" y1="93.6611" x2="61.785" y2="14.3" gradientUnits="userSpaceOnUse">
<stop stop-color="#9C83FF"/>
<stop offset="1" stop-color="#FF9051"/>
</linearGradient>
<linearGradient id="paint1_linear_132_2" x1="41.4847" y1="28.9193" x2="130.832" y2="-2.97765" gradientUnits="userSpaceOnUse">
<stop stop-color="#9C83FF"/>
<stop offset="1" stop-color="#FF9051"/>
</linearGradient>
<clipPath id="clip0_132_2">
<rect width="197.55" height="120" fill="white"/>
</clipPath>
</defs>
</svg>
