<svg width="1280" height="3355" viewBox="0 0 1280 3355" fill="none" xmlns="http://www.w3.org/2000/svg">
<g opacity="0.2">
<path d="M1377.53 1211.09C1687.32 1299.08 1952.93 1430.93 2131.93 1572.95C2221.44 1643.97 2289.27 1717.51 2330.16 1789.36C2371.04 1861.22 2384.96 1931.35 2366.72 1995.58C2348.47 2059.81 2299.77 2112.16 2227.22 2151.79C2154.67 2191.43 2058.31 2218.34 1944.84 2231.7C1717.9 2258.43 1422.64 2230.99 1112.85 2143C803.065 2055.02 537.455 1923.17 358.448 1781.14C268.943 1710.13 201.11 1636.59 160.225 1564.73C119.341 1492.88 105.421 1422.75 123.664 1358.52C141.907 1294.28 190.612 1241.94 263.161 1202.3C335.712 1162.67 432.074 1135.76 545.544 1122.39C772.481 1095.66 1067.74 1123.11 1377.53 1211.09Z" stroke="url(#paint0_linear_41_3958)"/>
<path d="M1385.64 1213.48C1693.84 1306.85 1957.11 1443.32 2133.61 1588.45C2221.87 1661.01 2288.4 1735.72 2328.03 1808.28C2367.65 1880.84 2380.35 1951.2 2360.99 2015.11C2341.62 2079.01 2292.01 2130.5 2218.78 2168.86C2145.55 2207.22 2048.74 2232.45 1935.05 2243.83C1707.68 2266.6 1412.94 2234 1104.74 2140.62C796.536 2047.24 533.267 1910.78 356.766 1765.65C268.515 1693.09 201.976 1618.37 162.351 1545.81C122.726 1473.26 110.032 1402.9 129.394 1338.99C148.756 1275.09 198.366 1223.6 271.596 1185.24C344.828 1146.87 441.645 1121.65 555.331 1110.27C782.699 1087.5 1077.44 1120.1 1385.64 1213.48Z" stroke="url(#paint1_linear_41_3958)"/>
<path d="M1393.71 1216C1700.24 1314.74 1961.08 1455.78 2135.03 1603.96C2222 1678.06 2287.22 1753.92 2325.57 1827.16C2363.93 1900.4 2375.39 1970.97 2354.92 2034.53C2334.44 2098.08 2283.94 2148.7 2210.05 2185.78C2136.16 2222.86 2038.92 2246.38 1925.05 2255.78C1697.32 2274.58 1403.2 2236.84 1096.67 2138.1C790.144 2039.36 529.296 1898.32 355.355 1750.13C268.384 1676.04 203.159 1600.17 164.806 1526.93C126.454 1453.7 114.99 1383.13 135.464 1319.57C155.938 1256.01 206.439 1205.4 280.328 1168.32C354.218 1131.24 451.461 1107.71 565.327 1098.31C793.059 1079.52 1087.18 1117.25 1393.71 1216Z" stroke="url(#paint2_linear_41_3958)"/>
<path d="M1401.73 1218.66C1706.49 1322.74 1964.84 1468.31 2136.17 1619.5C2221.83 1695.11 2285.72 1772.1 2322.79 1845.99C2359.86 1919.89 2370.09 1990.65 2348.51 2053.84C2326.93 2117.03 2275.55 2166.75 2201.03 2202.54C2126.5 2238.32 2028.86 2260.15 1914.85 2267.56C1686.82 2282.38 1393.4 2239.51 1088.65 2135.44C783.89 2031.36 525.544 1885.79 354.216 1734.59C268.55 1658.99 204.66 1582 167.591 1508.1C130.523 1434.21 120.292 1363.45 141.872 1300.26C163.452 1237.07 214.829 1187.34 289.354 1151.56C363.88 1115.77 461.518 1093.94 575.532 1086.54C803.556 1071.72 1096.98 1114.58 1401.73 1218.66Z" stroke="url(#paint3_linear_41_3958)"/>
<path d="M1409.71 1221.46C1712.6 1330.84 1968.37 1480.9 2137.03 1635.06C2221.37 1712.15 2283.9 1790.24 2319.68 1864.77C2355.45 1939.3 2364.44 2010.23 2341.76 2073.04C2319.08 2135.84 2266.85 2184.66 2191.71 2219.14C2116.57 2253.62 2018.57 2273.74 1904.44 2279.16C1676.19 2289.99 1383.56 2242.01 1080.67 2132.63C777.776 2023.26 522.01 1873.2 353.346 1719.03C269.014 1641.95 206.476 1563.85 170.702 1489.32C134.93 1414.79 125.936 1343.86 148.615 1281.06C171.295 1218.25 223.532 1169.44 298.669 1134.96C373.809 1100.48 471.813 1080.36 585.939 1074.94C814.187 1064.1 1106.82 1112.08 1409.71 1221.46Z" stroke="url(#paint4_linear_41_3958)"/>
<path d="M1417.64 1224.4C1718.58 1339.05 1971.68 1493.55 2137.63 1650.63C2220.61 1729.18 2281.77 1808.35 2316.24 1883.5C2350.7 1958.64 2358.46 2029.72 2334.69 2092.12C2310.91 2154.51 2257.83 2202.41 2182.11 2235.58C2106.38 2268.74 2008.04 2287.15 1893.83 2290.57C1665.43 2297.42 1373.68 2244.34 1072.74 2129.69C771.806 2015.04 518.697 1860.55 352.75 1703.46C269.776 1624.92 208.61 1545.74 174.143 1470.6C139.677 1395.45 131.922 1324.38 155.694 1261.98C179.466 1199.58 232.547 1151.68 308.275 1118.52C384.005 1085.36 482.346 1066.95 596.548 1063.52C824.951 1056.67 1116.7 1109.75 1417.64 1224.4Z" stroke="url(#paint5_linear_41_3958)"/>
<path d="M1425.51 1227.48C1724.4 1347.36 1974.78 1506.25 2137.96 1666.21C2219.55 1746.19 2279.32 1826.42 2312.47 1902.16C2345.62 1977.89 2352.13 2049.09 2327.28 2111.07C2302.42 2173.04 2248.51 2220.01 2172.22 2251.84C2095.92 2283.68 1997.27 2300.37 1883.03 2301.8C1654.54 2304.66 1363.76 2246.5 1064.87 2126.61C765.979 2006.73 515.606 1847.84 352.425 1687.88C270.834 1607.9 211.06 1527.67 177.91 1451.94C144.76 1376.2 138.247 1305 163.104 1243.03C187.962 1181.05 241.871 1134.09 318.166 1102.25C394.463 1070.42 493.11 1053.73 607.355 1052.3C835.842 1049.43 1126.62 1107.6 1425.51 1227.48Z" stroke="url(#paint6_linear_41_3958)"/>
<path d="M1433.33 1230.69C1730.08 1355.78 1977.64 1519.01 2138.01 1681.79C2218.19 1763.19 2276.56 1844.45 2308.38 1920.75C2340.2 1997.05 2345.47 2068.35 2319.54 2129.88C2293.6 2191.42 2238.88 2237.43 2162.04 2267.93C2085.2 2298.43 1986.28 2313.4 1872.03 2312.83C1643.52 2311.71 1353.81 2248.48 1057.05 2123.4C760.298 1998.32 512.736 1835.08 352.372 1672.3C272.189 1590.91 213.824 1509.65 182 1433.34C150.177 1357.04 144.908 1285.74 170.843 1224.21C196.778 1162.68 251.499 1116.66 328.338 1086.16C405.179 1055.66 504.102 1040.7 618.355 1041.26C846.857 1042.38 1136.57 1105.61 1433.33 1230.69Z" stroke="url(#paint7_linear_41_3958)"/>
<path d="M1441.09 1234.05C1735.62 1364.29 1980.29 1531.82 2137.79 1697.38C2216.54 1780.15 2273.48 1862.42 2303.97 1939.27C2334.45 2016.11 2338.48 2087.5 2311.47 2148.57C2284.47 2209.63 2228.95 2254.69 2151.59 2283.84C2074.23 2313 1975.06 2326.23 1860.84 2323.68C1632.39 2318.56 1343.82 2250.29 1049.29 2120.05C754.766 1989.8 510.09 1822.27 352.591 1656.72C273.841 1573.94 216.903 1491.67 186.416 1414.82C155.93 1337.98 151.905 1266.6 178.911 1205.53C205.916 1144.46 261.431 1099.4 338.791 1070.25C416.152 1041.09 515.322 1027.86 629.547 1030.42C857.995 1035.53 1146.56 1103.8 1441.09 1234.05Z" stroke="url(#paint8_linear_41_3958)"/>
<path d="M1448.79 1237.53C1741 1372.9 1982.71 1544.67 2137.3 1712.95C2214.59 1797.09 2270.09 1880.34 2299.23 1957.71C2328.37 2035.07 2331.15 2106.51 2303.08 2167.1C2275.01 2227.69 2218.72 2271.77 2140.86 2299.57C2063 2327.37 1963.62 2338.87 1849.46 2334.32C1621.13 2325.22 1333.8 2251.92 1041.59 2116.56C749.381 1981.2 507.667 1809.42 353.081 1641.14C275.788 1557 220.295 1473.75 191.153 1396.39C162.013 1319.02 159.235 1247.58 187.302 1186.99C215.369 1126.4 271.662 1082.32 349.518 1054.52C427.377 1026.72 526.762 1015.22 640.925 1019.77C869.25 1028.87 1156.58 1102.17 1448.79 1237.53Z" stroke="url(#paint9_linear_41_3958)"/>
<path d="M1456.43 1241.15C1746.23 1381.59 1984.91 1557.56 2136.54 1728.52C2212.35 1813.99 2266.38 1898.2 2294.17 1976.06C2321.95 2053.92 2323.49 2125.4 2294.37 2185.49C2265.25 2245.58 2208.19 2288.67 2129.86 2315.11C2051.53 2341.54 1951.96 2351.31 1837.89 2344.77C1609.76 2331.69 1323.75 2253.38 1033.95 2112.94C744.149 1972.5 505.469 1796.53 353.844 1625.58C278.031 1540.1 223.999 1455.9 196.212 1378.03C168.426 1300.17 166.895 1228.69 196.015 1168.6C225.135 1108.51 282.189 1065.42 360.519 1038.99C438.851 1012.55 538.422 1002.78 652.488 1009.33C880.619 1022.41 1166.63 1100.71 1456.43 1241.15Z" stroke="url(#paint10_linear_41_3958)"/>
<path d="M1464.01 1244.91C1751.31 1390.38 1986.88 1570.49 2135.5 1744.06C2209.81 1830.85 2262.37 1915.98 2288.79 1994.32C2315.21 2072.65 2315.5 2144.15 2285.33 2203.72C2255.17 2263.3 2197.37 2305.38 2118.59 2330.45C2039.81 2355.51 1940.08 2363.54 1826.15 2355.01C1598.28 2337.95 1313.68 2254.67 1026.38 2109.19C739.069 1963.71 503.496 1783.6 354.878 1610.03C280.568 1523.24 228.014 1438.11 201.59 1359.77C175.167 1281.44 174.885 1209.94 205.049 1150.37C235.213 1090.8 293.011 1048.71 371.79 1023.64C450.571 998.578 550.297 990.551 664.232 999.082C892.1 1016.14 1176.7 1099.43 1464.01 1244.91Z" stroke="url(#paint11_linear_41_3958)"/>
<path d="M1471.51 1248.79C1756.24 1399.26 1988.63 1583.45 2134.2 1759.59C2206.98 1847.66 2258.04 1933.7 2283.09 2012.49C2308.15 2091.27 2307.18 2162.76 2275.98 2221.8C2244.78 2280.83 2186.26 2321.91 2107.05 2345.59C2027.85 2369.28 1928 2375.56 1814.23 2365.05C1586.69 2344.01 1303.59 2255.77 1018.87 2105.3C734.143 1954.83 501.75 1770.64 356.183 1594.5C283.399 1506.43 232.339 1420.39 207.287 1341.61C182.235 1262.82 183.2 1191.33 214.399 1132.3C245.599 1073.26 304.122 1032.19 383.326 1008.5C462.533 984.813 562.384 978.528 676.153 989.046C903.688 1010.08 1186.79 1098.32 1471.51 1248.79Z" stroke="url(#paint12_linear_41_3958)"/>
<path d="M1478.96 1252.8C1761.01 1408.22 1990.15 1596.44 2132.62 1775.09C2203.86 1864.42 2253.41 1951.34 2277.08 2030.55C2300.76 2109.76 2298.54 2181.22 2266.32 2239.7C2234.09 2298.19 2174.86 2338.23 2095.26 2360.53C2015.65 2382.83 1915.7 2387.37 1802.14 2374.87C1575 2349.87 1293.48 2256.7 1011.43 2101.29C729.373 1945.87 500.23 1757.65 357.76 1579C286.524 1489.67 236.973 1402.75 213.3 1323.54C189.626 1244.33 191.839 1172.87 224.064 1114.39C256.289 1055.9 315.52 1015.86 395.126 993.559C474.734 971.258 574.68 966.717 688.247 979.219C915.381 1004.22 1196.9 1097.39 1478.96 1252.8Z" stroke="url(#paint13_linear_41_3958)"/>
<path d="M1486.32 1256.95C1765.62 1417.26 1991.44 1609.45 2130.78 1790.57C2200.44 1881.12 2248.47 1968.89 2270.76 2048.5C2293.04 2128.11 2289.58 2199.53 2256.34 2257.44C2223.1 2315.35 2163.18 2354.36 2083.2 2375.26C2003.21 2396.17 1903.2 2398.97 1789.87 2384.49C1563.21 2355.52 1283.36 2257.46 1004.06 2097.14C724.759 1936.83 498.936 1744.64 359.605 1563.53C289.939 1472.97 241.913 1385.2 219.625 1305.59C197.338 1225.98 200.797 1154.57 234.038 1096.65C267.279 1038.74 327.2 999.736 407.183 978.829C487.168 957.921 587.178 955.125 700.51 969.607C927.172 998.571 1207.02 1096.63 1486.32 1256.95Z" stroke="url(#paint14_linear_41_3958)"/>
<path d="M1493.62 1261.22C1770.08 1426.39 1992.51 1622.49 2128.66 1806.01C2196.73 1897.76 2243.22 1986.36 2264.12 2066.35C2285.01 2146.33 2280.31 2217.68 2246.06 2275C2211.81 2332.32 2151.22 2370.28 2070.88 2389.78C1990.55 2409.29 1890.5 2410.34 1777.44 2393.88C1551.32 2360.97 1273.22 2258.04 996.763 2092.87C720.305 1927.71 497.87 1731.61 361.722 1548.09C293.647 1456.33 247.159 1367.74 226.264 1287.75C205.37 1207.76 210.075 1136.42 244.322 1079.1C278.568 1021.77 339.161 983.819 419.496 964.31C499.834 944.801 599.877 943.751 712.94 960.209C939.062 993.125 1217.16 1096.06 1493.62 1261.22Z" stroke="url(#paint15_linear_41_3958)"/>
<path d="M1500.84 1265.62C1774.37 1435.59 1993.35 1635.54 2126.27 1821.4C2192.74 1914.34 2237.67 2003.73 2257.17 2084.07C2276.66 2164.41 2270.71 2235.66 2235.47 2292.37C2200.23 2349.09 2138.98 2385.98 2058.32 2404.08C1977.65 2422.19 1877.61 2421.49 1764.85 2403.06C1539.34 2366.21 1263.08 2258.44 989.544 2088.47C716.011 1918.51 497.032 1718.55 364.107 1532.69C297.644 1439.76 252.71 1350.37 233.214 1270.02C213.719 1189.68 219.668 1118.44 254.91 1061.72C290.152 1005 351.397 968.111 432.061 950.008C512.728 931.904 612.774 932.6 725.532 951.029C951.045 987.886 1227.3 1095.66 1500.84 1265.62Z" stroke="url(#paint16_linear_41_3958)"/>
<path d="M1507.98 1270.15C1778.5 1444.86 1993.96 1648.6 2123.62 1836.76C2188.45 1930.84 2231.82 2021 2249.91 2101.67C2268 2182.34 2260.81 2253.47 2224.58 2309.56C2188.36 2365.66 2126.48 2401.47 2045.51 2418.17C1964.54 2434.86 1864.52 2432.42 1752.1 2412.02C1527.26 2371.24 1252.93 2258.66 982.403 2083.95C711.877 1909.24 496.422 1705.49 366.761 1517.33C301.93 1423.25 258.562 1333.09 240.472 1252.42C222.382 1171.76 229.574 1100.62 265.8 1044.53C302.026 988.437 363.906 952.621 444.874 935.928C525.844 919.235 625.862 921.676 738.281 942.07C963.117 982.857 1237.45 1095.43 1507.98 1270.15Z" stroke="url(#paint17_linear_41_3958)"/>
<path d="M1515.04 1274.79C1782.48 1454.2 1994.34 1661.67 2120.7 1852.07C2183.88 1947.26 2225.67 2038.17 2242.35 2119.14C2259.03 2200.11 2250.59 2271.11 2213.39 2326.56C2176.19 2382.01 2113.7 2416.74 2032.45 2432.02C1951.2 2447.3 1851.24 2443.11 1739.2 2420.76C1515.11 2376.05 1242.78 2258.71 975.342 2079.3C707.906 1899.89 496.039 1692.42 369.682 1502.03C306.503 1406.83 264.716 1315.93 248.036 1234.95C231.356 1153.98 239.789 1082.98 276.988 1027.53C314.188 972.081 376.684 937.35 457.93 922.073C539.179 906.795 639.14 910.982 751.186 933.335C975.276 978.039 1247.6 1095.39 1515.04 1274.79Z" stroke="url(#paint18_linear_41_3958)"/>
<path d="M1522.02 1279.56C1786.28 1463.61 1994.5 1674.75 2117.51 1867.32C2179.02 1963.6 2219.21 2055.22 2234.48 2136.47C2249.74 2217.72 2240.07 2288.56 2201.91 2343.36C2163.75 2398.15 2100.66 2431.79 2019.16 2445.64C1937.65 2459.5 1837.78 2453.57 1726.14 2429.27C1502.87 2380.66 1232.63 2258.58 968.363 2074.53C704.099 1890.48 495.885 1679.34 372.87 1486.77C311.362 1390.49 271.167 1298.87 255.903 1217.62C240.639 1136.37 250.31 1065.53 288.471 1010.73C326.633 955.94 389.725 922.305 471.226 908.448C552.729 894.591 652.602 900.522 764.241 924.827C987.516 973.435 1257.76 1095.52 1522.02 1279.56Z" stroke="url(#paint19_linear_41_3958)"/>
<path d="M1528.91 1284.46C1789.92 1473.09 1994.42 1687.83 2114.06 1882.51C2173.88 1979.86 2212.47 2072.16 2226.31 2153.67C2240.15 2235.17 2229.25 2305.83 2190.14 2359.95C2151.02 2414.07 2087.35 2446.6 2005.62 2459.04C1923.89 2471.47 1824.14 2463.8 1712.94 2437.55C1490.55 2385.05 1222.48 2258.27 961.467 2069.64C700.456 1881.01 495.959 1666.26 376.323 1471.58C316.504 1374.24 277.915 1281.93 264.071 1200.42C250.228 1118.92 261.133 1048.26 300.245 994.14C339.357 940.02 403.027 907.491 484.757 895.059C566.49 882.626 666.244 890.299 777.441 916.548C999.835 969.047 1267.9 1095.83 1528.91 1284.46Z" stroke="url(#paint20_linear_41_3958)"/>
<path d="M1535.72 1289.47C1793.4 1482.62 1994.12 1700.9 2110.34 1897.65C2168.45 1996.02 2205.42 2088.98 2217.84 2170.72C2230.26 2252.45 2218.12 2322.91 2178.07 2376.34C2138.02 2429.77 2073.8 2461.18 1991.86 2472.19C1909.92 2483.19 1810.32 2473.78 1699.6 2445.59C1478.15 2389.22 1212.34 2257.78 954.659 2064.62C696.98 1871.47 496.261 1653.19 380.042 1456.45C321.931 1358.07 284.959 1265.11 272.539 1183.37C260.12 1101.64 272.257 1031.18 312.308 977.751C352.359 924.322 416.586 892.909 498.521 881.905C580.458 870.901 680.063 880.313 790.786 908.5C1012.23 964.871 1278.04 1096.31 1535.72 1289.47Z" stroke="url(#paint21_linear_41_3958)"/>
<path d="M1542.44 1294.6C1796.71 1492.22 1993.59 1713.97 2106.36 1912.71C2162.74 2012.08 2198.09 2105.68 2209.08 2187.62C2220.07 2269.56 2206.7 2339.79 2165.73 2392.52C2124.75 2445.24 2059.98 2475.52 1977.87 2485.1C1895.75 2494.67 1796.33 2483.52 1686.11 2453.41C1465.69 2393.18 1202.21 2257.12 947.939 2059.5C693.67 1861.87 496.792 1640.12 384.023 1441.38C327.639 1342.01 292.294 1248.41 281.303 1166.47C270.313 1084.54 283.677 1014.3 324.654 961.577C365.632 908.855 430.398 878.568 512.512 868.996C594.629 859.423 694.054 870.573 804.268 900.687C1024.69 960.914 1288.17 1096.97 1542.44 1294.6Z" stroke="url(#paint22_linear_41_3958)"/>
<path d="M1549.07 1299.84C1799.85 1501.88 1992.83 1727.03 2102.11 1927.7C2156.76 2028.05 2190.46 2122.25 2200.02 2204.36C2209.58 2286.48 2194.99 2356.47 2153.1 2408.47C2111.21 2460.47 2045.92 2489.62 1963.66 2497.76C1881.38 2505.9 1782.17 2493.02 1672.5 2460.98C1453.16 2396.92 1192.09 2256.28 941.31 2054.25C690.529 1852.22 497.55 1627.07 388.268 1426.39C333.626 1326.05 299.92 1231.85 290.361 1149.73C280.802 1067.61 295.39 997.619 337.281 945.62C379.172 893.621 444.457 864.47 526.726 856.332C608.997 848.193 708.213 861.076 817.885 893.11C1037.23 957.175 1298.29 1097.81 1549.07 1299.84Z" stroke="url(#paint23_linear_41_3958)"/>
<path d="M1555.61 1305.2C1802.83 1511.58 1991.85 1740.07 2097.61 1942.62C2150.49 2043.9 2182.55 2138.68 2190.67 2220.95C2198.8 2303.22 2182.99 2372.95 2140.2 2424.21C2097.4 2475.47 2031.62 2503.47 1949.22 2510.17C1866.82 2516.88 1767.85 2502.26 1658.75 2468.32C1440.56 2400.44 1181.99 2255.27 934.773 2048.89C687.556 1842.51 498.536 1614.03 392.773 1411.47C339.89 1310.19 307.834 1215.42 299.709 1133.14C291.585 1050.87 307.392 981.146 350.185 929.886C392.977 878.627 458.76 850.619 541.159 843.918C623.56 837.217 722.535 851.829 831.631 885.772C1049.82 953.655 1308.39 1098.82 1555.61 1305.2Z" stroke="url(#paint24_linear_41_3958)"/>
<path d="M1562.05 1310.68C1805.63 1521.34 1990.63 1753.09 2092.84 1957.46C2143.95 2059.65 2174.35 2154.96 2181.04 2237.37C2187.72 2319.77 2170.7 2389.21 2127.02 2439.71C2083.34 2490.22 2017.08 2517.07 1934.57 2522.34C1852.07 2527.6 1753.36 2511.26 1644.88 2475.42C1427.91 2403.74 1171.91 2254.08 928.33 2043.42C684.753 1832.75 499.75 1601 397.537 1396.63C346.43 1294.45 316.033 1199.13 309.345 1116.73C302.658 1034.33 319.68 964.886 363.36 914.381C407.04 863.875 473.303 837.02 555.806 831.758C638.311 826.496 737.016 842.834 845.503 878.675C1062.47 950.356 1318.47 1100.02 1562.05 1310.68Z" stroke="url(#paint25_linear_41_3958)"/>
<path d="M1568.4 1316.26C1808.26 1531.15 1989.19 1766.09 2087.82 1972.21C2137.14 2075.27 2165.87 2171.11 2171.11 2253.61C2176.36 2336.12 2158.13 2405.25 2113.58 2454.99C2069.02 2504.72 2002.3 2530.42 1919.72 2534.24C1837.13 2538.06 1738.73 2520 1630.88 2482.27C1415.2 2406.82 1161.85 2252.71 921.984 2037.83C682.12 1822.95 501.19 1588.01 402.559 1381.88C353.244 1278.82 324.515 1182.99 319.266 1100.48C314.018 1017.98 332.25 948.842 376.805 899.107C421.359 849.372 488.081 823.677 570.663 819.856C653.247 816.034 751.652 834.092 859.497 871.821C1075.18 947.278 1328.53 1101.38 1568.4 1316.26Z" stroke="url(#paint26_linear_41_3958)"/>
<path d="M1574.64 1321.96C1810.72 1540.99 1987.52 1779.06 2082.54 1986.87C2130.05 2090.78 2157.1 2187.1 2160.91 2269.68C2164.72 2352.27 2145.28 2421.07 2099.87 2470.02C2054.45 2518.97 1987.29 2543.5 1904.66 2545.88C1822.02 2548.26 1723.94 2528.49 1616.77 2488.88C1402.43 2409.67 1151.82 2251.17 915.738 2032.13C679.661 1813.1 502.858 1575.04 407.84 1367.22C360.331 1263.31 333.278 1166.99 329.471 1084.41C325.663 1001.82 345.099 933.019 390.515 884.069C435.931 835.119 503.09 810.592 585.727 808.213C668.365 805.833 766.44 825.606 873.61 865.211C1087.95 944.421 1338.57 1102.92 1574.64 1321.96Z" stroke="url(#paint27_linear_41_3958)"/>
<path d="M1580.79 1327.76C1813.01 1550.88 1985.63 1792 2077.01 2001.44C2122.7 2106.16 2148.06 2202.94 2150.43 2285.58C2152.79 2368.21 2132.16 2436.67 2085.9 2484.82C2039.63 2532.97 1972.06 2556.32 1889.39 2557.26C1806.72 2558.19 1709.01 2536.71 1602.55 2495.24C1389.62 2412.3 1141.81 2249.45 909.591 2026.33C677.372 1803.21 504.752 1562.1 413.375 1352.66C367.686 1247.93 342.319 1151.16 339.953 1068.52C337.588 985.88 358.221 917.424 404.484 869.274C450.748 821.124 518.325 797.773 600.99 796.836C683.658 795.9 781.373 817.381 887.835 858.85C1100.76 941.789 1348.57 1104.64 1580.79 1327.76Z" stroke="url(#paint28_linear_41_3958)"/>
<path d="M1586.83 1333.67C1815.12 1560.81 1983.51 1804.9 2071.22 2015.91C2115.07 2121.41 2138.75 2218.62 2139.67 2301.28C2140.59 2383.95 2118.77 2452.03 2071.67 2499.37C2024.57 2546.7 1956.6 2568.87 1873.93 2568.37C1791.26 2567.86 1693.93 2544.68 1588.21 2501.36C1376.77 2414.71 1131.83 2247.56 903.545 2020.42C675.256 1793.28 506.869 1549.19 419.162 1338.19C375.308 1232.69 351.634 1135.48 350.71 1052.81C349.787 970.146 371.612 902.061 418.709 854.726C465.806 807.391 533.78 785.222 616.449 785.729C699.12 786.235 796.446 809.418 902.168 852.739C1113.61 939.381 1358.55 1106.53 1586.83 1333.67Z" stroke="url(#paint29_linear_41_3958)"/>
<path d="M1592.78 1339.69C1817.07 1570.78 1981.17 1817.77 2065.18 2030.27C2107.19 2136.52 2129.16 2234.13 2128.64 2316.8C2128.12 2399.47 2105.11 2467.16 2057.19 2513.67C2009.28 2560.17 1940.93 2581.15 1858.28 2579.2C1775.63 2577.25 1678.72 2552.38 1573.77 2507.22C1363.88 2416.9 1121.9 2245.49 897.605 2014.4C673.314 1783.31 509.214 1536.32 425.202 1323.82C383.196 1217.57 361.222 1119.97 361.741 1037.29C362.261 954.626 385.271 886.932 433.187 840.426C481.102 793.92 549.453 772.941 632.101 774.89C714.751 776.839 811.657 801.717 916.607 846.877C1126.51 937.196 1368.49 1108.6 1592.78 1339.69Z" stroke="url(#paint30_linear_41_3958)"/>
<path d="M1598.61 1345.81C1818.83 1580.77 1978.6 1830.59 2058.89 2044.53C2099.04 2151.5 2119.3 2249.47 2117.34 2332.12C2115.38 2414.77 2091.19 2482.05 2042.47 2527.71C1993.75 2573.37 1925.04 2593.16 1842.44 2589.76C1759.84 2586.37 1663.38 2559.81 1559.24 2512.82C1350.95 2418.86 1111.99 2243.26 891.77 2008.29C671.547 1773.32 511.782 1523.5 431.492 1309.57C391.346 1202.6 371.079 1104.62 373.042 1021.97C375.004 939.327 399.192 872.044 447.912 826.382C496.632 780.719 565.339 760.937 647.939 764.328C730.543 767.719 827 794.285 931.146 841.269C1139.44 935.237 1378.39 1110.84 1598.61 1345.81Z" stroke="url(#paint31_linear_41_3958)"/>
<path d="M1604.34 1352.02C1820.43 1590.8 1975.81 1843.37 2052.35 2058.67C2090.62 2166.32 2109.18 2264.64 2105.77 2347.24C2102.37 2429.84 2077.01 2496.69 2027.5 2541.5C1977.99 2586.3 1908.95 2604.88 1826.42 2600.05C1743.89 2595.22 1647.91 2566.97 1544.6 2518.18C1337.98 2420.59 1102.13 2240.85 886.043 2002.07C669.954 1763.29 514.573 1510.73 438.029 1295.42C399.756 1187.77 381.202 1089.46 384.607 1006.85C388.011 924.253 413.369 857.403 462.879 812.597C512.389 767.792 581.43 749.212 663.959 754.044C746.491 758.876 842.469 787.121 945.78 835.916C1152.4 933.505 1388.25 1113.25 1604.34 1352.02Z" stroke="url(#paint32_linear_41_3958)"/>
<path d="M1609.96 1358.34C1821.84 1600.85 1972.79 1856.09 2045.57 2072.7C2081.96 2181 2098.79 2279.63 2093.95 2362.16C2089.1 2444.69 2062.58 2511.08 2012.3 2555.02C1962.01 2598.95 1892.66 2616.32 1810.23 2610.05C1727.79 2603.78 1632.32 2573.86 1529.88 2523.27C1324.99 2422.09 1092.31 2238.26 880.426 1995.75C668.537 1753.24 517.588 1498 444.813 1281.39C408.425 1173.09 391.589 1074.47 396.435 991.935C401.28 909.407 427.801 843.01 478.085 799.075C528.369 755.141 597.725 737.768 680.157 744.04C762.591 750.312 858.062 780.228 960.505 830.818C1165.39 931.998 1398.07 1115.83 1609.96 1358.34Z" stroke="url(#paint33_linear_41_3958)"/>
<path d="M1615.46 1364.76C1823.09 1610.93 1969.56 1868.76 2038.54 2086.61C2073.03 2195.53 2088.15 2294.43 2081.86 2376.87C2075.58 2459.3 2047.9 2525.22 1996.86 2568.27C1945.81 2611.32 1876.17 2627.48 1793.86 2619.77C1711.54 2612.06 1616.61 2580.48 1515.06 2528.11C1311.98 2423.37 1082.54 2235.51 874.92 1989.34C667.296 1743.16 520.824 1485.33 451.84 1267.48C417.348 1158.56 402.236 1059.66 408.521 977.226C414.806 894.795 442.482 828.871 493.525 785.821C544.568 742.77 614.216 726.611 696.526 734.32C778.839 742.03 873.773 773.607 975.318 825.978C1178.4 930.719 1407.84 1118.58 1615.46 1364.76Z" stroke="url(#paint34_linear_41_3958)"/>
<path d="M1620.86 1371.27C1824.15 1621.03 1966.1 1881.38 2031.27 2100.39C2063.86 2209.9 2077.24 2309.05 2069.52 2391.36C2061.8 2473.67 2032.98 2539.1 1981.19 2581.25C1929.4 2623.41 1859.48 2638.35 1777.32 2629.2C1695.15 2620.06 1600.78 2586.83 1500.17 2532.69C1298.94 2424.43 1072.82 2232.59 869.525 1982.83C666.229 1733.07 524.279 1472.72 459.108 1253.7C426.522 1144.19 413.139 1045.04 420.862 962.732C428.584 880.423 457.406 814.992 509.193 772.839C560.98 730.686 630.899 715.745 713.062 724.889C795.228 734.034 889.597 767.264 990.212 821.399C1191.44 929.668 1417.56 1121.51 1620.86 1371.27Z" stroke="url(#paint35_linear_41_3958)"/>
<path d="M1626.14 1377.87C1825.04 1631.14 1962.43 1893.93 2023.76 2114.05C2054.43 2224.11 2066.09 2323.48 2056.93 2405.64C2047.77 2487.8 2017.81 2552.72 1965.3 2593.96C1912.78 2635.2 1842.61 2648.92 1760.62 2638.35C1678.63 2627.77 1584.85 2592.9 1485.2 2537.01C1285.89 2425.25 1063.15 2229.49 864.245 1976.22C665.339 1722.96 527.955 1460.17 466.616 1240.05C435.946 1129.99 424.295 1030.62 433.453 948.455C442.611 866.293 472.571 801.375 525.085 760.132C577.6 718.89 647.769 705.171 729.76 715.748C811.754 726.325 905.528 761.197 1005.18 817.08C1204.49 928.844 1427.23 1124.6 1626.14 1377.87Z" stroke="url(#paint36_linear_41_3958)"/>
<path d="M1631.3 1384.56C1825.75 1641.26 1958.53 1906.41 2016.02 2127.57C2044.76 2238.15 2054.68 2337.7 2044.09 2419.69C2033.5 2501.68 2002.41 2566.07 1949.18 2606.39C1895.96 2646.71 1825.56 2659.2 1743.77 2647.19C1661.97 2635.19 1568.82 2598.68 1470.15 2541.07C1272.83 2425.85 1053.54 2226.23 859.082 1969.53C664.627 1712.83 531.849 1447.68 474.361 1226.52C445.617 1115.95 435.702 1016.39 446.293 934.398C456.884 852.408 487.972 788.023 541.198 747.703C594.424 707.383 664.822 694.891 746.616 706.898C828.413 718.905 921.564 755.407 1020.23 813.021C1217.56 928.247 1436.84 1127.86 1631.3 1384.56Z" stroke="url(#paint37_linear_41_3958)"/>
<path d="M1636.34 1391.35C1826.29 1651.4 1954.42 1918.83 2008.04 2140.95C2034.85 2252.02 2043.03 2351.73 2031.01 2433.52C2018.99 2515.32 1986.78 2579.15 1932.86 2618.53C1878.93 2657.92 1808.33 2669.18 1726.76 2655.75C1645.18 2642.32 1552.68 2604.19 1455.04 2544.87C1259.75 2426.21 1043.98 2222.8 854.036 1962.75C664.09 1702.69 535.961 1435.27 482.341 1213.14C455.531 1102.08 447.355 1002.36 459.375 920.568C471.395 838.776 503.602 774.943 557.524 735.558C611.446 696.174 682.051 684.912 763.623 698.344C845.197 711.777 937.698 749.9 1035.34 809.226C1230.63 927.878 1446.4 1131.29 1636.34 1391.35Z" stroke="url(#paint38_linear_41_3958)"/>
<path d="M1641.27 1398.22C1826.65 1661.55 1950.09 1931.17 1999.83 2154.2C2024.7 2265.71 2031.13 2365.55 2017.68 2447.12C2004.24 2528.69 1970.92 2591.95 1916.32 2630.39C1861.72 2668.83 1790.93 2678.86 1709.6 2664C1628.28 2649.15 1536.46 2609.42 1439.86 2548.4C1246.68 2426.35 1034.49 2219.21 849.11 1955.88C663.732 1692.55 540.289 1422.93 490.554 1199.9C465.686 1088.38 459.252 988.542 472.698 906.97C486.143 825.4 519.459 762.139 574.06 723.701C628.661 685.263 699.453 675.236 780.778 690.089C862.105 704.944 953.926 744.675 1050.52 805.697C1243.7 927.739 1455.89 1134.88 1641.27 1398.22Z" stroke="url(#paint39_linear_41_3958)"/>
<path d="M1646.08 1405.17C1826.83 1671.7 1945.55 1943.43 1991.38 2167.29C2014.3 2279.22 2018.99 2379.16 2004.13 2460.49C1989.26 2541.81 1954.84 2604.48 1899.58 2641.96C1844.32 2679.44 1773.36 2688.23 1692.31 2671.96C1611.25 2655.69 1520.14 2614.36 1424.62 2551.66C1233.6 2426.27 1025.06 2215.45 844.304 1948.92C663.55 1682.4 544.831 1410.66 498.996 1186.8C476.079 1074.87 471.387 974.93 486.255 893.605C501.122 812.282 535.537 749.612 590.801 712.133C646.064 674.654 717.02 665.864 798.073 682.134C879.129 698.406 970.242 739.734 1065.76 802.432C1256.78 927.827 1465.32 1138.64 1646.08 1405.17Z" stroke="url(#paint40_linear_41_3958)"/>
<path d="M1650.76 1412.21C1826.84 1681.85 1940.79 1955.61 1982.72 2180.24C2003.68 2292.55 2006.62 2392.56 1990.34 2473.61C1974.05 2554.66 1938.55 2616.72 1882.64 2653.23C1826.73 2689.74 1755.63 2697.29 1674.88 2679.61C1594.12 2661.93 1503.74 2619.01 1409.33 2554.66C1220.53 2425.95 1015.7 2211.52 839.621 1941.88C663.545 1672.24 549.587 1398.48 507.666 1173.85C486.706 1061.54 483.759 961.531 500.044 880.478C516.328 799.427 551.832 737.367 607.741 700.858C663.65 664.35 734.748 656.799 815.505 674.482C896.265 692.165 986.643 735.077 1081.05 799.432C1269.86 928.142 1474.69 1142.57 1650.76 1412.21Z" stroke="url(#paint41_linear_41_3958)"/>
<path d="M1655.32 1419.33C1826.66 1692 1935.83 1967.71 1973.82 2193.04C1992.82 2305.7 1994.02 2405.74 1976.32 2486.5C1958.63 2567.25 1922.05 2628.68 1865.51 2664.21C1808.97 2699.74 1737.75 2706.05 1657.31 2686.96C1576.88 2667.87 1487.26 2623.38 1393.99 2557.39C1207.46 2425.4 1006.4 2207.44 835.06 1934.77C663.718 1662.09 554.555 1386.38 516.561 1161.06C497.563 1048.39 496.363 948.352 514.059 867.595C531.755 786.841 568.337 725.41 624.875 689.883C681.412 654.355 752.632 648.046 833.068 667.136C913.506 686.226 1003.12 730.709 1096.39 796.702C1282.92 928.687 1483.98 1146.65 1655.32 1419.33Z" stroke="url(#paint42_linear_41_3958)"/>
<path d="M1659.76 1426.52C1826.32 1702.15 1930.65 1979.72 1964.71 2205.67C1981.73 2318.65 1981.19 2418.7 1962.08 2499.13C1942.98 2579.57 1905.33 2640.35 1848.18 2674.88C1791.04 2709.42 1719.72 2714.49 1639.63 2693.99C1559.53 2673.5 1470.71 2627.46 1378.61 2559.85C1194.4 2424.63 997.183 2203.19 830.625 1927.57C664.067 1651.95 559.733 1374.37 525.677 1148.42C508.649 1035.44 509.195 935.393 528.298 854.958C547.401 774.525 585.049 713.742 642.198 679.206C699.347 644.671 770.665 639.606 850.756 660.097C930.849 680.588 1019.68 726.628 1111.78 794.239C1295.98 929.459 1493.2 1150.9 1659.76 1426.52Z" stroke="url(#paint43_linear_41_3958)"/>
<path d="M1664.07 1433.8C1825.79 1712.28 1925.26 1991.64 1955.37 2218.15C1970.42 2331.41 1968.13 2431.43 1947.63 2511.52C1927.12 2591.61 1888.42 2651.72 1830.68 2685.26C1772.93 2718.79 1701.54 2722.61 1621.82 2700.72C1542.09 2678.84 1454.09 2631.25 1363.18 2562.05C1181.36 2423.63 988.038 2198.78 826.316 1920.29C664.594 1641.81 565.12 1362.45 535.012 1135.94C519.958 1022.68 522.25 922.661 542.754 842.571C563.258 762.484 601.961 702.367 659.704 668.835C717.447 635.302 788.843 631.482 868.564 653.367C948.288 675.253 1036.3 722.836 1127.2 792.044C1309.02 930.459 1502.34 1155.31 1664.07 1433.8Z" stroke="url(#paint44_linear_41_3958)"/>
<path d="M1668.25 1441.15C1825.08 1722.41 1919.67 2003.46 1945.82 2230.46C1958.89 2343.97 1954.86 2443.93 1932.96 2523.65C1911.06 2603.37 1871.31 2662.8 1812.99 2695.32C1754.67 2727.84 1683.22 2730.41 1603.89 2707.14C1524.57 2683.87 1437.4 2634.76 1347.71 2563.97C1168.34 2422.41 978.972 2194.21 822.134 1912.95C665.297 1631.68 570.713 1350.64 544.564 1123.63C531.489 1010.13 535.526 910.16 557.424 830.441C579.323 750.723 619.069 691.291 677.389 658.771C735.708 626.252 807.16 623.679 886.487 646.952C965.816 670.225 1052.98 719.337 1142.67 790.121C1322.04 931.688 1511.41 1159.88 1668.25 1441.15Z" stroke="url(#paint45_linear_41_3958)"/>
<path d="M1672.3 1448.56C1824.2 1732.53 1913.87 2015.18 1936.05 2242.61C1947.14 2356.32 1941.36 2456.2 1918.08 2535.53C1894.79 2614.85 1854.01 2673.58 1795.13 2705.08C1736.26 2736.57 1664.77 2737.9 1585.86 2713.25C1506.95 2688.59 1420.66 2637.96 1332.22 2565.63C1155.35 2420.95 969.986 2189.49 818.081 1905.53C666.177 1621.57 576.512 1338.91 554.329 1111.49C543.237 997.773 549.017 897.892 572.304 818.567C595.59 739.243 636.368 680.514 695.246 649.017C754.125 617.52 825.61 616.194 904.519 640.848C983.43 665.503 1069.72 716.129 1158.16 788.467C1335.03 933.143 1520.39 1164.6 1672.3 1448.56Z" stroke="url(#paint46_linear_41_3958)"/>
<path d="M1676.22 1456.05C1823.15 1742.62 1907.87 2026.8 1926.08 2254.58C1935.18 2368.47 1927.66 2468.23 1902.99 2547.14C1878.32 2626.04 1836.53 2684.05 1777.11 2714.52C1717.69 2744.98 1646.19 2745.06 1567.73 2719.03C1489.26 2693 1403.86 2640.88 1316.7 2567.01C1142.38 2419.27 961.085 2184.61 814.159 1898.04C667.233 1611.47 582.515 1327.3 564.304 1099.52C555.198 985.626 562.722 885.861 587.389 806.954C612.056 728.049 653.852 670.04 713.272 639.576C772.691 609.111 844.189 609.033 922.655 635.061C1001.12 661.089 1086.52 713.213 1173.68 787.084C1348 934.824 1529.3 1169.49 1676.22 1456.05Z" stroke="url(#paint47_linear_41_3958)"/>
<path d="M1680.01 1463.61C1821.92 1752.7 1901.66 2038.31 1915.89 2266.37C1923.01 2380.4 1913.75 2480.02 1887.71 2558.49C1861.67 2636.95 1818.86 2694.22 1758.92 2723.64C1698.98 2753.07 1627.49 2751.9 1549.49 2724.5C1471.49 2697.11 1387.02 2643.5 1301.16 2568.12C1129.44 2417.36 952.271 2179.57 810.369 1890.48C668.466 1601.39 588.721 1315.78 574.488 1087.72C567.371 973.688 576.634 874.07 602.676 795.605C628.716 717.143 671.518 659.873 731.46 630.45C791.402 601.027 862.89 602.197 940.89 629.59C1018.89 656.983 1103.37 710.59 1189.23 785.971C1360.94 936.731 1538.11 1174.52 1680.01 1463.61Z" stroke="url(#paint48_linear_41_3958)"/>
<path d="M1683.67 1471.23C1820.51 1762.75 1895.26 2049.71 1905.51 2277.99C1910.63 2392.13 1899.63 2491.57 1872.22 2569.57C1844.82 2647.56 1801.02 2704.08 1740.58 2732.45C1680.13 2760.82 1608.67 2758.41 1531.16 2729.66C1453.65 2700.9 1370.13 2645.83 1285.6 2568.96C1116.54 2415.23 943.544 2174.39 806.708 1882.86C669.873 1591.34 595.125 1304.38 584.874 1076.11C579.749 961.968 590.749 862.526 618.155 784.528C645.561 706.532 689.356 650.017 749.802 621.645C810.249 593.273 881.706 595.69 959.216 624.44C1036.73 653.191 1120.26 708.263 1204.78 785.131C1373.84 938.866 1546.84 1179.71 1683.67 1471.23Z" stroke="url(#paint49_linear_41_3958)"/>
<path d="M1687.2 1478.92C1818.92 1772.78 1888.65 2061 1894.92 2289.42C1898.05 2403.63 1885.32 2502.87 1856.55 2580.37C1827.79 2657.88 1783.02 2713.62 1722.08 2740.94C1661.15 2768.25 1589.75 2764.58 1512.75 2734.49C1435.75 2704.39 1353.2 2647.86 1270.02 2569.53C1103.67 2412.87 934.91 2169.04 803.184 1875.18C671.457 1581.31 601.728 1293.09 595.463 1064.67C592.33 950.463 605.064 851.228 633.828 773.72C662.591 696.215 707.365 640.473 768.297 613.16C829.23 585.846 900.634 589.511 977.63 619.609C1054.63 649.708 1137.18 706.23 1220.36 784.562C1386.71 941.223 1555.47 1185.05 1687.2 1478.92Z" stroke="url(#paint50_linear_41_3958)"/>
<path d="M1690.59 1486.66C1817.17 1782.78 1881.85 2072.17 1884.13 2300.67C1885.27 2414.92 1870.81 2513.91 1840.69 2590.91C1810.58 2667.9 1764.84 2722.85 1703.44 2749.1C1642.04 2775.34 1570.71 2770.43 1494.25 2738.99C1417.79 2707.56 1336.24 2649.6 1254.44 2569.83C1090.85 2410.29 926.371 2163.55 799.793 1867.43C673.215 1571.31 608.527 1281.92 606.249 1053.43C605.11 939.179 619.574 840.182 649.686 763.188C679.797 686.196 725.538 631.244 786.937 604.998C848.337 578.753 919.666 583.663 996.126 615.1C1072.59 646.539 1154.14 704.493 1235.94 784.264C1399.53 943.804 1564.01 1190.54 1690.59 1486.66Z" stroke="url(#paint51_linear_41_3958)"/>
<path d="M1693.84 1494.46C1815.23 1792.75 1874.86 2083.22 1873.15 2311.72C1872.3 2425.97 1856.11 2524.7 1824.65 2601.16C1793.2 2677.61 1746.51 2731.76 1684.66 2756.93C1622.82 2782.1 1551.58 2775.95 1475.68 2743.18C1399.78 2710.41 1319.25 2651.04 1238.86 2569.86C1078.08 2407.48 917.929 2157.92 796.538 1859.63C675.147 1561.35 615.52 1270.87 617.23 1042.37C618.085 928.121 634.275 829.391 665.726 752.934C697.176 676.48 743.869 622.334 805.717 597.164C867.565 571.994 938.798 578.148 1014.7 610.915C1090.6 643.683 1171.13 703.052 1251.52 784.238C1412.3 946.61 1572.45 1196.18 1693.84 1494.46Z" stroke="url(#paint52_linear_41_3958)"/>
<path d="M1696.96 1502.32C1813.13 1802.68 1867.68 2094.15 1861.98 2322.59C1859.13 2436.8 1841.22 2535.24 1808.44 2611.13C1775.66 2687.03 1728.03 2740.35 1665.75 2764.44C1603.47 2788.52 1532.36 2781.13 1457.04 2747.04C1381.72 2712.95 1302.24 2652.19 1223.28 2569.61C1065.36 2404.46 909.586 2152.13 793.42 1851.77C677.253 1551.42 622.704 1259.94 628.402 1031.51C631.251 917.29 649.161 818.857 681.942 742.961C714.722 667.067 762.352 613.745 824.631 589.658C886.909 565.572 958.023 572.968 1033.34 607.055C1108.66 641.142 1188.14 701.907 1267.1 784.484C1425.02 949.637 1580.79 1201.96 1696.96 1502.32Z" stroke="url(#paint53_linear_41_3958)"/>
<path d="M1699.94 1510.23C1810.85 1812.57 1860.3 2104.95 1850.62 2333.25C1845.78 2447.4 1826.15 2545.51 1792.05 2620.82C1757.95 2696.13 1709.4 2748.61 1646.71 2771.61C1584.02 2794.61 1513.05 2785.97 1438.34 2750.57C1363.62 2715.18 1285.21 2653.03 1207.71 2569.09C1052.69 2401.21 901.346 2146.2 790.439 1843.86C679.532 1541.53 630.079 1249.14 639.762 1020.84C644.604 906.691 664.23 808.586 698.33 733.274C732.429 657.964 780.983 605.481 843.672 582.485C906.361 559.488 977.335 568.125 1052.04 603.521C1126.76 638.918 1205.17 701.06 1282.67 785.003C1437.69 952.887 1589.03 1207.89 1699.94 1510.23Z" stroke="url(#paint54_linear_41_3958)"/>
<path d="M1702.78 1518.19C1808.4 1822.42 1852.74 2115.62 1839.07 2343.72C1832.24 2457.77 1810.91 2555.51 1775.5 2630.22C1740.09 2704.92 1690.63 2756.55 1627.54 2778.45C1564.46 2800.35 1493.65 2790.48 1419.57 2753.78C1345.49 2717.09 1268.18 2653.58 1192.14 2568.3C1040.08 2397.74 893.21 2140.13 787.597 1835.9C681.984 1531.67 637.64 1238.47 651.307 1010.38C658.14 896.327 679.475 798.58 714.884 723.874C750.292 649.17 799.755 597.542 862.836 575.644C925.917 553.745 996.73 563.619 1070.81 600.313C1144.89 637.009 1222.21 700.511 1298.24 785.793C1450.3 956.357 1597.17 1213.96 1702.78 1518.19Z" stroke="url(#paint55_linear_41_3958)"/>
<path d="M1705.49 1526.2C1805.77 1832.23 1844.99 2126.16 1827.35 2353.98C1818.53 2467.89 1795.49 2565.25 1758.78 2639.33C1722.07 2713.41 1671.72 2764.16 1608.26 2784.96C1544.81 2805.75 1474.18 2794.64 1400.75 2756.66C1327.32 2718.68 1251.13 2653.84 1176.6 2567.24C1027.54 2394.05 885.182 2133.92 784.895 1827.89C684.607 1521.87 645.387 1227.94 663.033 1000.11C671.855 886.2 694.893 788.84 731.6 714.764C768.307 640.689 818.663 589.933 882.117 569.139C945.57 548.344 1016.2 559.452 1089.63 597.434C1163.06 635.417 1239.25 700.258 1313.78 786.855C1462.85 960.046 1605.2 1220.18 1705.49 1526.2Z" stroke="url(#paint56_linear_41_3958)"/>
<path d="M1708.05 1534.26C1802.98 1841.99 1837.06 2136.56 1815.45 2364.04C1804.64 2477.78 1779.9 2574.72 1741.91 2648.15C1703.91 2721.57 1652.68 2771.44 1588.87 2791.12C1525.07 2810.81 1454.64 2798.47 1381.89 2759.21C1309.13 2719.95 1234.08 2653.79 1161.07 2565.91C1015.06 2390.14 877.264 2127.56 782.333 1819.83C687.401 1512.11 653.317 1217.54 674.936 990.055C685.745 876.314 710.478 779.371 748.473 705.946C786.467 632.523 837.701 582.654 901.508 562.97C965.314 543.286 1035.74 555.625 1108.49 594.882C1181.25 634.141 1256.3 700.302 1329.31 788.186C1475.33 963.953 1613.12 1226.53 1708.05 1534.26Z" stroke="url(#paint57_linear_41_3958)"/>
<path d="M1710.47 1542.36C1800.02 1851.7 1828.95 2146.82 1803.37 2373.89C1790.58 2487.42 1764.16 2583.92 1724.88 2656.67C1685.61 2729.42 1633.52 2778.39 1569.38 2796.95C1505.24 2815.52 1435.04 2801.95 1362.98 2761.43C1290.92 2720.91 1217.04 2653.45 1145.57 2564.3C1002.64 2386.02 869.457 2121.07 779.911 1811.74C690.364 1502.4 661.426 1207.28 687.012 980.209C699.805 866.673 726.226 770.176 765.496 697.426C804.766 624.678 856.863 575.71 921.003 557.143C985.144 538.575 1055.34 552.142 1127.4 592.663C1199.46 633.185 1273.34 700.646 1344.81 789.791C1487.74 968.079 1620.92 1233.02 1710.47 1542.36Z" stroke="url(#paint58_linear_41_3958)"/>
<path d="M1712.75 1550.5C1796.88 1861.35 1820.67 2156.93 1791.12 2383.52C1776.35 2496.82 1748.25 2592.84 1707.71 2664.89C1667.18 2736.94 1614.24 2784.99 1549.78 2802.44C1485.33 2819.88 1415.38 2805.09 1344.04 2763.32C1272.69 2721.55 1200 2652.81 1130.1 2562.43C990.309 2381.67 861.765 2114.45 777.631 1803.59C693.497 1492.74 669.714 1197.16 699.258 970.572C714.031 857.277 742.132 761.256 782.666 689.203C823.199 617.151 876.143 569.099 940.598 551.654C1005.05 534.209 1075 548.999 1146.34 590.771C1217.69 632.545 1290.38 701.285 1360.28 791.664C1500.07 972.419 1628.62 1239.65 1712.75 1550.5Z" stroke="url(#paint59_linear_41_3958)"/>
<path d="M1714.89 1558.68C1793.58 1870.95 1812.2 2166.9 1778.71 2392.94C1761.96 2505.96 1732.19 2601.48 1690.4 2672.81C1648.62 2744.15 1594.84 2791.27 1530.1 2807.58C1465.35 2823.9 1395.66 2807.89 1325.06 2764.88C1254.46 2721.87 1182.98 2651.87 1114.67 2560.29C978.049 2377.12 854.189 2107.69 775.493 1795.42C696.797 1483.14 678.176 1187.19 711.671 961.153C728.418 848.133 758.191 752.617 799.977 681.282C841.761 609.948 895.535 562.828 960.284 546.511C1025.03 530.194 1094.72 546.201 1165.32 589.213C1235.92 632.225 1307.4 702.224 1375.71 793.808C1512.33 976.976 1636.19 1246.4 1714.89 1558.68Z" stroke="url(#paint60_linear_41_3958)"/>
<path d="M1716.88 1566.89C1790.12 1880.5 1803.57 2176.73 1766.13 2402.14C1747.42 2514.85 1715.98 2609.84 1672.96 2680.43C1629.93 2751.02 1575.35 2797.2 1510.32 2812.38C1445.3 2827.57 1375.9 2810.35 1306.07 2766.11C1236.22 2721.87 1165.97 2650.64 1099.27 2557.87C965.872 2372.35 846.733 2100.8 773.499 1787.2C700.265 1473.6 686.812 1177.37 724.246 951.951C742.964 839.241 774.399 744.259 817.423 673.663C860.446 603.07 915.034 556.896 980.058 541.711C1045.08 526.526 1114.48 543.747 1184.31 587.984C1254.16 632.223 1324.41 703.458 1391.11 796.221C1524.51 981.745 1643.65 1253.29 1716.88 1566.89Z" stroke="url(#paint61_linear_41_3958)"/>
<path d="M1718.73 1575.14C1786.48 1889.97 1794.76 2186.39 1753.4 2411.12C1732.72 2523.49 1699.63 2617.91 1655.38 2687.74C1611.13 2757.58 1555.75 2802.79 1490.47 2816.84C1425.19 2830.89 1356.11 2812.46 1287.05 2767.01C1217.99 2721.56 1148.99 2649.11 1083.92 2555.19C953.781 2367.37 839.399 2093.78 771.649 1778.95C703.899 1464.12 695.618 1167.7 736.981 942.969C757.662 830.603 790.75 736.184 835 666.35C879.248 596.519 934.634 551.304 999.914 537.256C1065.19 523.209 1134.27 541.638 1203.33 587.088C1272.39 632.538 1341.39 704.988 1406.46 798.901C1536.6 986.725 1650.98 1260.31 1718.73 1575.14Z" stroke="url(#paint62_linear_41_3958)"/>
<path d="M1720.44 1583.42C1782.68 1899.39 1785.79 2195.91 1740.51 2419.88C1717.87 2531.87 1683.14 2625.7 1637.68 2694.75C1592.22 2763.8 1536.05 2808.04 1470.54 2820.95C1405.02 2833.85 1336.27 2814.22 1268.02 2767.57C1199.77 2720.92 1132.04 2647.28 1068.62 2552.25C941.777 2362.18 832.187 2086.64 769.942 1770.67C707.697 1454.71 704.591 1158.19 749.869 934.212C772.509 822.224 807.239 728.397 852.701 659.346C898.162 590.297 954.328 546.056 1019.84 533.15C1085.36 520.243 1154.11 539.876 1222.36 586.523C1290.61 633.172 1358.34 706.816 1421.76 801.85C1548.6 991.916 1658.19 1267.46 1720.44 1583.42Z" stroke="url(#paint63_linear_41_3958)"/>
<path d="M1722 1591.73C1778.72 1908.74 1776.65 2205.26 1727.47 2428.41C1702.88 2539.99 1666.52 2633.2 1619.86 2701.44C1573.2 2769.69 1516.27 2812.94 1450.54 2824.7C1384.81 2836.46 1316.41 2815.64 1248.99 2767.8C1181.56 2719.97 1115.13 2645.16 1053.37 2549.03C929.866 2356.78 825.102 2079.37 768.381 1762.36C711.66 1445.36 713.729 1148.83 762.909 925.68C787.5 814.104 823.863 720.898 870.523 652.651C917.181 584.406 974.111 541.152 1039.84 529.391C1105.57 517.63 1173.97 538.459 1241.4 586.291C1308.83 634.123 1375.25 708.938 1437.01 805.064C1560.52 997.316 1665.28 1274.73 1722 1591.73Z" stroke="url(#paint64_linear_41_3958)"/>
<path d="M1723.42 1600.07C1774.6 1918.01 1767.35 2214.46 1714.29 2436.72C1687.75 2547.85 1649.77 2640.4 1601.92 2707.83C1554.08 2775.25 1496.4 2817.5 1430.48 2828.11C1364.55 2838.72 1296.53 2816.7 1229.95 2767.7C1163.36 2718.7 1098.25 2642.74 1038.19 2545.55C918.051 2351.17 818.145 2071.97 766.964 1754.03C715.784 1436.08 723.028 1139.64 776.096 917.378C802.63 806.247 840.614 713.69 888.458 646.268C936.3 578.848 993.977 536.594 1059.9 525.981C1125.83 515.369 1193.85 537.389 1260.43 586.39C1327.02 635.393 1392.13 711.355 1452.2 808.545C1572.33 1002.92 1672.24 1282.12 1723.42 1600.07Z" stroke="url(#paint65_linear_41_3958)"/>
<path d="M1724.69 1608.42C1770.31 1927.21 1757.89 2223.49 1700.96 2444.79C1672.49 2555.44 1632.89 2647.32 1583.88 2713.89C1534.87 2780.47 1476.46 2821.71 1410.36 2831.17C1344.26 2840.63 1276.63 2817.43 1210.92 2767.27C1145.2 2717.11 1081.42 2640.03 1023.06 2541.8C906.336 2345.36 811.317 2064.46 765.694 1745.67C720.07 1426.88 732.487 1130.6 789.425 909.306C817.894 798.656 857.488 706.775 906.502 640.199C955.513 573.624 1013.92 532.383 1080.02 522.923C1146.12 513.463 1213.75 536.667 1279.46 586.822C1345.18 636.979 1408.96 714.066 1467.32 812.289C1584.04 1008.73 1679.06 1289.63 1724.69 1608.42Z" stroke="url(#paint66_linear_41_3958)"/>
<path d="M1725.81 1616.8C1765.86 1936.34 1748.28 2232.35 1687.49 2452.62C1657.09 2562.76 1615.9 2653.94 1565.73 2719.65C1515.57 2785.36 1456.45 2825.57 1390.19 2833.88C1323.94 2842.18 1256.73 2817.8 1191.89 2766.51C1127.06 2715.21 1064.64 2637.02 1008 2537.8C894.724 2339.34 804.622 2056.83 764.569 1737.29C724.516 1417.75 742.102 1121.74 802.893 901.469C833.29 791.332 874.481 700.157 924.649 634.445C974.815 568.736 1033.93 528.521 1100.19 520.216C1166.44 511.911 1233.65 536.292 1298.49 587.586C1363.32 638.883 1425.74 717.071 1482.38 816.298C1595.66 1014.75 1685.76 1297.26 1725.81 1616.8Z" stroke="url(#paint67_linear_41_3958)"/>
<path d="M1726.79 1625.2C1761.26 1945.39 1738.51 2241.05 1673.88 2460.23C1641.57 2569.81 1598.79 2660.26 1547.49 2725.08C1496.18 2789.91 1436.37 2829.08 1369.98 2836.23C1303.59 2843.38 1236.82 2817.83 1172.89 2765.41C1108.96 2712.99 1047.91 2633.73 993.015 2533.53C883.218 2333.13 798.061 2049.08 763.591 1728.89C729.121 1408.71 751.87 1113.04 816.497 893.868C848.81 784.279 891.587 693.836 942.894 629.01C994.199 564.186 1054.01 525.009 1120.4 517.861C1186.79 510.714 1253.56 536.264 1317.49 588.683C1381.42 641.103 1442.47 720.368 1497.37 820.569C1607.16 1020.97 1692.32 1305.01 1726.79 1625.2Z" stroke="url(#paint68_linear_41_3958)"/>
<path d="M1727.62 1633.61C1756.5 1954.35 1728.59 2249.57 1660.15 2467.59C1625.93 2576.6 1581.58 2666.28 1529.15 2730.2C1476.72 2794.12 1416.24 2832.25 1349.73 2838.23C1283.23 2844.22 1216.91 2817.51 1153.91 2763.98C1090.9 2710.46 1031.25 2630.14 978.105 2528.99C871.823 2326.71 791.636 2041.22 762.759 1720.48C733.883 1399.74 761.788 1104.52 830.23 886.506C864.452 777.498 908.8 687.815 961.23 623.895C1013.66 559.976 1074.14 521.848 1140.65 515.861C1207.15 509.873 1273.47 536.585 1336.48 590.111C1399.48 643.639 1459.13 723.958 1512.28 825.101C1618.56 1027.39 1698.74 1312.87 1727.62 1633.61Z" stroke="url(#paint69_linear_41_3958)"/>
<path d="M1728.31 1642.04C1751.58 1963.23 1718.53 2257.92 1646.29 2474.71C1610.17 2583.1 1564.27 2672 1510.73 2734.99C1457.19 2797.99 1396.05 2835.05 1329.45 2839.88C1262.85 2844.71 1197.01 2816.84 1134.95 2762.22C1072.89 2707.6 1014.65 2626.26 963.278 2524.2C860.543 2320.09 785.35 2033.25 762.075 1712.05C738.801 1390.86 771.854 1096.17 844.091 879.383C880.209 770.988 926.116 682.093 979.654 619.098C1033.19 556.104 1094.33 519.037 1160.93 514.211C1227.53 509.386 1293.37 537.25 1355.43 591.868C1417.49 646.487 1475.74 727.835 1527.1 829.89C1629.84 1034 1705.03 1320.84 1728.31 1642.04Z" stroke="url(#paint70_linear_41_3958)"/>
<path d="M1728.84 1650.48C1746.51 1972.03 1708.32 2266.09 1632.31 2481.59C1594.3 2589.34 1546.85 2677.42 1492.22 2739.47C1437.6 2801.52 1375.82 2837.51 1309.15 2841.17C1242.47 2844.84 1177.12 2815.83 1116.03 2760.13C1054.93 2704.44 998.116 2622.09 948.536 2519.15C849.378 2313.28 779.203 2025.17 761.538 1703.62C743.873 1382.06 782.064 1088 858.073 872.504C896.078 764.757 943.529 676.676 998.158 614.625C1052.79 552.575 1114.56 516.581 1181.24 512.918C1247.91 509.255 1313.26 538.265 1374.35 593.957C1435.45 649.651 1492.27 732.003 1541.85 834.939C1641 1040.81 1711.18 1328.92 1728.84 1650.48Z" stroke="url(#paint71_linear_41_3958)"/>
<path d="M1729.23 1658.92C1741.28 1980.73 1697.97 2274.09 1618.21 2488.22C1578.33 2595.29 1529.35 2682.53 1473.64 2743.62C1417.94 2804.71 1355.55 2839.62 1288.82 2842.11C1222.09 2844.61 1157.26 2814.47 1097.14 2757.72C1037.03 2700.96 981.659 2617.63 933.884 2513.85C838.334 2306.28 773.198 2016.99 761.147 1695.17C749.097 1373.36 792.414 1080.01 872.173 865.872C912.052 758.804 961.033 671.565 1016.74 610.476C1072.44 549.389 1134.84 514.479 1201.56 511.98C1268.29 509.482 1333.12 539.628 1393.24 596.378C1453.35 653.129 1508.72 736.46 1556.5 840.246C1652.05 1047.82 1717.18 1337.11 1729.23 1658.92Z" stroke="url(#paint72_linear_41_3958)"/>
<path d="M1729.48 1667.37C1735.91 1989.35 1687.48 2281.9 1603.99 2494.61C1562.25 2600.96 1511.76 2687.33 1454.99 2747.44C1398.23 2807.55 1335.24 2841.36 1268.48 2842.7C1201.72 2844.03 1137.42 2812.76 1078.31 2754.97C1019.19 2697.17 965.284 2612.89 919.328 2508.29C827.415 2299.08 767.338 2008.7 760.905 1686.72C754.472 1364.75 802.903 1072.19 886.387 859.484C928.129 753.129 978.625 666.758 1035.39 606.651C1092.15 546.545 1155.14 512.729 1221.9 511.395C1288.66 510.062 1352.96 541.334 1412.07 599.125C1471.19 656.917 1525.1 741.202 1571.05 845.806C1662.97 1055.01 1723.04 1345.4 1729.48 1667.37Z" stroke="url(#paint73_linear_41_3958)"/>
<path d="M1729.57 1675.82C1730.38 1997.86 1676.85 2289.53 1589.67 2500.75C1546.08 2606.36 1494.08 2691.83 1436.28 2750.94C1378.48 2810.05 1314.91 2842.76 1248.13 2842.93C1181.36 2843.09 1117.62 2810.7 1059.52 2751.89C1001.42 2693.08 948.995 2607.86 904.87 2502.47C816.623 2291.7 761.623 2000.31 760.81 1678.27C759.998 1356.23 813.527 1064.57 900.71 853.347C944.302 747.736 996.298 662.26 1054.1 603.152C1111.9 544.046 1175.48 511.335 1242.25 511.167C1309.02 510.998 1372.76 543.388 1430.86 602.202C1488.96 661.017 1541.39 746.23 1585.51 851.619C1673.76 1062.4 1728.76 1353.79 1729.57 1675.82Z" stroke="url(#paint74_linear_41_3958)"/>
<path d="M1729.52 1684.28C1724.71 2006.28 1666.1 2296.97 1575.24 2506.63C1529.81 2611.47 1476.34 2696.02 1417.51 2754.11C1358.69 2812.2 1294.55 2843.8 1227.78 2842.8C1161.02 2841.8 1097.85 2808.31 1040.79 2748.49C983.725 2688.67 932.794 2602.55 890.516 2496.41C805.961 2284.12 756.054 1991.82 760.862 1669.81C765.67 1347.81 824.282 1057.13 915.138 847.461C960.566 742.627 1014.05 658.071 1072.87 599.981C1131.69 541.893 1195.83 510.296 1262.6 511.293C1329.36 512.29 1392.53 545.788 1449.59 605.606C1506.66 665.427 1557.59 751.541 1599.86 857.685C1684.42 1069.97 1734.33 1362.28 1729.52 1684.28Z" stroke="url(#paint75_linear_41_3958)"/>
<path d="M1729.32 1692.73C1718.89 2014.6 1655.22 2304.22 1560.71 2512.27C1513.46 2616.29 1458.52 2699.9 1398.69 2756.96C1338.86 2814.01 1274.18 2844.48 1207.44 2842.32C1140.7 2840.16 1078.13 2805.56 1022.12 2744.76C966.11 2683.95 916.689 2596.96 876.27 2490.09C795.432 2276.36 750.635 1983.23 761.062 1661.36C771.489 1339.49 835.165 1049.88 929.666 841.827C976.917 737.801 1031.86 654.192 1091.69 597.138C1151.52 540.085 1216.2 509.612 1282.94 511.774C1349.68 513.936 1412.25 548.531 1468.26 609.337C1524.27 670.144 1573.69 757.134 1614.11 864C1694.95 1077.73 1739.75 1370.86 1729.32 1692.73Z" stroke="url(#paint76_linear_41_3958)"/>
<path d="M1728.97 1701.18C1712.93 2022.82 1644.21 2311.28 1546.09 2517.65C1497.03 2620.83 1440.63 2703.47 1379.82 2759.47C1319 2815.47 1253.8 2844.81 1187.11 2841.48C1120.42 2838.16 1058.46 2802.48 1003.52 2740.7C948.579 2678.93 900.685 2591.09 862.136 2483.53C785.041 2268.43 745.367 1974.56 761.409 1652.92C777.452 1331.28 846.173 1042.82 944.29 836.45C993.35 733.265 1049.75 650.627 1110.56 594.625C1171.38 538.626 1236.58 509.286 1303.27 512.613C1369.96 515.939 1431.92 551.621 1486.86 613.394C1541.8 675.17 1589.7 763.009 1628.24 870.564C1705.34 1085.67 1745.01 1379.54 1728.97 1701.18Z" stroke="url(#paint77_linear_41_3958)"/>
<path d="M1728.48 1709.62C1706.82 2030.93 1633.08 2318.15 1531.37 2522.77C1480.52 2625.08 1422.69 2706.72 1360.91 2761.66C1299.12 2816.59 1233.42 2844.78 1166.8 2840.29C1100.17 2835.8 1038.85 2799.04 984.995 2736.32C931.14 2673.6 884.785 2584.93 848.12 2476.72C774.791 2260.3 740.251 1965.79 761.905 1644.48C783.558 1323.17 857.303 1035.95 959.007 831.325C1009.86 729.012 1067.69 647.371 1129.48 592.439C1191.26 537.509 1256.96 509.312 1323.58 513.802C1390.21 518.292 1451.53 555.05 1505.39 617.773C1559.24 680.497 1605.6 769.159 1642.26 877.371C1715.59 1093.79 1750.13 1388.31 1728.48 1709.62Z" stroke="url(#paint78_linear_41_3958)"/>
<path d="M1727.83 1718.05C1700.58 2038.93 1621.83 2324.82 1516.57 2527.64C1463.94 2629.05 1404.69 2709.67 1341.96 2763.51C1279.23 2817.35 1213.04 2844.4 1146.51 2838.75C1079.97 2833.1 1019.3 2795.27 966.547 2731.62C913.795 2667.96 868.995 2578.51 834.224 2469.67C764.683 2252.01 735.288 1956.93 762.546 1636.05C789.804 1315.17 868.55 1029.28 973.81 826.46C1026.44 725.05 1085.69 644.431 1148.42 590.586C1211.15 536.742 1277.34 509.697 1343.87 515.349C1410.41 521 1471.08 558.823 1523.83 622.476C1576.59 686.131 1621.39 775.589 1656.16 884.423C1725.7 1102.09 1755.09 1397.16 1727.83 1718.05Z" stroke="url(#paint79_linear_41_3958)"/>
<path d="M1727.05 1726.46C1694.19 2046.82 1610.47 2331.29 1501.68 2532.24C1447.29 2632.72 1386.65 2712.29 1322.98 2765.03C1259.32 2817.77 1192.67 2843.66 1126.25 2836.85C1059.82 2830.04 999.818 2791.16 948.186 2726.6C896.552 2662.03 853.32 2571.8 820.454 2462.38C754.722 2243.53 730.482 1947.99 763.336 1627.63C796.19 1307.27 879.913 1022.8 988.697 821.852C1043.09 721.376 1103.74 641.803 1167.4 589.062C1231.06 536.321 1297.71 510.435 1364.13 517.247C1430.56 524.059 1490.56 562.934 1542.2 627.499C1593.83 692.065 1637.06 782.291 1669.93 891.715C1735.66 1110.56 1759.9 1406.11 1727.05 1726.46Z" stroke="url(#paint80_linear_41_3958)"/>
<path d="M1726.11 1734.87C1687.67 2054.6 1598.99 2337.57 1486.72 2536.59C1430.58 2636.1 1368.56 2714.6 1303.98 2766.23C1239.41 2817.85 1172.32 2842.57 1106.02 2834.6C1039.73 2826.63 980.41 2786.71 929.913 2721.25C879.414 2655.8 837.764 2564.83 806.812 2454.85C744.91 2234.89 725.831 1938.97 764.271 1619.23C802.711 1299.49 891.386 1016.53 1003.66 817.507C1059.8 717.995 1121.82 639.493 1186.4 587.87C1250.97 536.249 1318.06 511.53 1384.36 519.5C1450.65 527.471 1509.97 567.387 1560.47 632.843C1610.97 698.3 1652.62 789.267 1683.57 899.248C1745.47 1119.21 1764.55 1415.13 1726.11 1734.87Z" stroke="url(#paint81_linear_41_3958)"/>
<path d="M1725.03 1743.25C1681.01 2062.27 1587.41 2343.64 1471.68 2540.67C1413.82 2639.19 1350.43 2716.6 1284.96 2767.09C1219.5 2817.57 1151.99 2841.12 1085.84 2831.99C1019.7 2822.86 961.084 2781.92 911.737 2715.59C862.389 2649.26 822.332 2557.58 793.304 2447.08C735.25 2226.07 721.339 1929.86 765.353 1610.85C809.368 1291.83 902.968 1010.45 1018.7 813.422C1076.56 714.906 1139.95 637.498 1205.42 587.01C1270.88 536.524 1338.39 512.979 1404.54 522.105C1470.68 531.231 1529.3 572.177 1578.64 638.504C1627.99 704.833 1668.05 796.512 1697.08 907.018C1755.13 1128.03 1769.04 1424.23 1725.03 1743.25Z" stroke="url(#paint82_linear_41_3958)"/>
<path d="M1723.8 1751.61C1674.22 2069.81 1575.73 2349.51 1456.58 2544.49C1397 2641.99 1332.27 2718.28 1265.93 2767.61C1199.6 2816.95 1131.69 2839.31 1065.71 2829.03C999.734 2818.75 941.845 2776.79 893.663 2709.61C845.479 2642.43 807.029 2550.07 779.934 2439.07C725.746 2217.09 717.007 1920.68 766.582 1602.48C816.157 1284.28 914.654 1004.58 1033.81 809.601C1093.38 712.109 1158.11 635.819 1224.45 586.482C1290.78 537.145 1358.69 514.782 1424.67 525.062C1490.65 535.341 1548.54 577.303 1596.72 644.481C1644.9 711.661 1683.35 804.026 1710.45 915.021C1764.63 1137.01 1773.37 1433.41 1723.8 1751.61Z" stroke="url(#paint83_linear_41_3958)"/>
<path d="M1722.42 1759.96C1667.3 2077.24 1563.94 2355.18 1441.4 2548.05C1380.14 2644.49 1314.09 2719.64 1246.9 2767.81C1179.71 2815.98 1111.42 2837.15 1045.63 2825.73C979.846 2814.3 922.698 2771.33 875.696 2703.32C828.692 2635.31 791.859 2542.29 766.706 2430.84C716.4 2207.94 712.835 1911.42 767.956 1594.14C823.077 1276.85 926.44 998.915 1048.98 806.043C1110.25 709.606 1176.29 634.458 1243.48 586.285C1310.67 538.114 1378.96 516.94 1444.75 528.369C1510.53 539.798 1567.68 582.765 1614.68 650.773C1661.69 718.784 1698.52 811.806 1723.67 923.256C1773.98 1146.16 1777.55 1442.67 1722.42 1759.96Z" stroke="url(#paint84_linear_41_3958)"/>
<path d="M1720.9 1768.27C1660.25 2084.55 1552.06 2360.64 1426.17 2551.34C1363.23 2646.7 1295.88 2720.68 1227.86 2767.67C1159.85 2814.66 1091.2 2834.64 1025.62 2822.07C960.038 2809.49 903.649 2765.54 857.841 2696.72C812.031 2627.9 776.828 2534.25 753.623 2422.37C707.215 2198.63 708.825 1902.1 769.476 1585.82C830.126 1269.55 938.324 993.456 1064.21 802.752C1127.15 707.399 1194.5 633.415 1262.52 586.422C1330.53 539.431 1399.18 519.452 1464.76 532.028C1530.34 544.603 1586.73 588.56 1632.54 657.379C1678.35 726.199 1713.55 819.85 1736.76 931.723C1783.16 1155.47 1781.55 1452 1720.9 1768.27Z" stroke="url(#paint85_linear_41_3958)"/>
<path d="M1719.24 1776.56C1653.08 2091.73 1540.08 2365.89 1410.89 2554.37C1346.29 2648.61 1277.66 2721.41 1208.83 2767.2C1140 2813 1071.02 2831.78 1005.67 2818.06C940.318 2804.34 884.705 2759.41 840.104 2689.8C795.503 2620.19 761.939 2525.94 740.691 2413.68C698.195 2189.16 704.98 1892.7 771.14 1577.53C837.301 1262.37 950.301 988.204 1079.49 799.726C1144.09 705.486 1212.72 632.689 1281.55 586.89C1350.38 541.093 1419.36 522.315 1484.71 536.033C1550.06 549.752 1605.68 594.686 1650.28 664.294C1694.88 733.903 1728.44 828.154 1749.69 940.415C1792.19 1164.93 1785.4 1461.39 1719.24 1776.56Z" stroke="url(#paint86_linear_41_3958)"/>
<path d="M1717.43 1784.82C1645.78 2098.78 1528.01 2370.93 1395.55 2557.13C1329.32 2650.22 1259.43 2721.81 1189.81 2766.4C1120.2 2810.99 1050.89 2828.56 985.791 2813.71C920.691 2798.85 865.87 2752.95 822.492 2682.58C779.112 2612.2 747.198 2517.38 727.912 2404.76C689.341 2179.54 701.299 1883.24 772.95 1569.27C844.601 1255.31 962.368 983.161 1094.83 796.967C1161.06 703.869 1230.95 632.28 1300.57 587.69C1370.19 543.101 1439.49 525.53 1504.59 540.386C1569.69 555.243 1624.51 601.141 1667.89 671.517C1711.27 741.894 1743.18 836.716 1762.47 949.33C1801.04 1174.56 1789.08 1470.85 1717.43 1784.82Z" stroke="url(#paint87_linear_41_3958)"/>
<path d="M1715.48 1793.04C1638.36 2105.71 1515.86 2375.76 1380.17 2559.62C1312.32 2651.54 1241.19 2721.9 1170.81 2765.27C1100.42 2808.64 1030.82 2825 965.993 2809.01C901.162 2793.02 847.151 2746.17 805.007 2675.05C762.862 2603.92 732.608 2508.56 715.29 2395.62C680.656 2169.76 697.783 1873.72 774.903 1561.05C852.022 1248.38 974.521 978.332 1110.21 794.477C1178.06 702.549 1249.19 632.191 1319.57 588.823C1389.96 545.456 1459.56 529.097 1524.39 545.087C1589.22 561.078 1643.23 607.926 1685.37 679.048C1727.52 750.171 1757.77 845.536 1775.09 958.47C1809.73 1184.34 1792.6 1480.38 1715.48 1793.04Z" stroke="url(#paint88_linear_41_3958)"/>
<path d="M1713.38 1801.23C1630.82 2112.51 1503.62 2380.38 1364.74 2561.84C1295.3 2652.57 1222.96 2721.67 1151.83 2763.81C1080.7 2805.94 1010.82 2821.08 946.279 2803.96C881.737 2786.84 828.552 2739.06 787.656 2667.21C746.759 2595.36 718.173 2499.49 702.829 2386.27C672.142 2159.83 694.433 1864.14 776.998 1552.86C859.563 1241.59 986.756 973.715 1125.64 792.257C1195.08 701.527 1267.42 632.421 1338.55 590.287C1409.68 548.155 1479.56 533.013 1544.1 550.133C1608.64 567.253 1661.83 615.036 1702.72 686.882C1743.62 758.731 1772.21 854.609 1787.55 967.828C1818.24 1194.26 1795.95 1489.96 1713.38 1801.23Z" stroke="url(#paint89_linear_41_3958)"/>
<path d="M1711.14 1809.38C1623.16 2119.17 1491.31 2384.78 1349.28 2563.79C1278.27 2653.29 1204.73 2721.13 1132.87 2762.01C1061.02 2802.9 990.891 2816.82 926.658 2798.57C862.425 2780.33 810.082 2731.62 770.446 2659.08C730.809 2586.52 703.901 2490.16 690.535 2376.69C663.804 2149.76 691.253 1854.49 779.237 1544.71C867.222 1234.92 999.071 969.311 1141.1 790.304C1212.11 700.799 1285.65 632.967 1357.51 592.081C1429.36 551.197 1499.49 537.277 1563.72 555.52C1627.96 573.763 1680.3 622.468 1719.94 695.017C1759.57 767.568 1786.48 863.931 1799.85 977.4C1826.58 1204.34 1799.13 1499.6 1711.14 1809.38Z" stroke="url(#paint90_linear_41_3958)"/>
<path d="M1708.76 1817.5C1615.39 2125.7 1478.92 2388.97 1333.79 2565.47C1261.23 2653.72 1186.51 2720.26 1113.96 2759.89C1041.4 2799.51 971.038 2812.21 907.133 2792.84C843.228 2773.48 791.742 2723.87 753.379 2650.64C715.014 2577.41 689.792 2480.59 678.409 2366.91C655.642 2139.54 688.24 1844.8 781.617 1536.6C874.995 1228.39 1011.46 965.124 1156.59 788.623C1229.15 700.372 1303.87 633.833 1376.42 594.208C1448.98 554.584 1519.34 541.89 1583.25 561.251C1647.15 580.613 1698.64 630.223 1737 703.453C1775.37 776.685 1800.59 873.502 1811.97 987.188C1834.74 1214.56 1802.14 1509.29 1708.76 1817.5Z" stroke="url(#paint91_linear_41_3958)"/>
<path d="M1706.24 1825.57C1607.5 2132.09 1466.46 2392.94 1318.27 2566.88C1244.18 2653.85 1168.32 2719.08 1095.08 2757.43C1021.84 2795.78 951.269 2807.25 887.711 2786.77C824.154 2766.3 773.542 2715.8 736.462 2641.91C699.381 2568.02 675.853 2470.78 666.456 2356.91C647.661 2129.18 685.397 1835.05 784.14 1528.53C882.882 1222 1023.92 961.152 1172.11 787.211C1246.2 700.24 1322.07 635.015 1395.3 596.662C1468.54 558.31 1539.11 546.846 1602.67 567.32C1666.23 587.794 1716.84 638.295 1753.92 712.184C1791 786.074 1814.53 883.317 1823.93 997.183C1842.72 1224.91 1804.98 1519.04 1706.24 1825.57Z" stroke="url(#paint92_linear_41_3958)"/>
<path d="M1703.58 1833.59C1599.5 2138.35 1453.93 2396.69 1302.73 2568.02C1227.13 2653.69 1150.14 2717.58 1076.25 2754.65C1002.35 2791.71 931.588 2801.95 868.398 2780.37C805.208 2758.79 755.485 2707.41 719.7 2632.88C683.914 2558.36 662.087 2460.72 654.678 2346.71C639.861 2118.68 682.725 1825.26 786.801 1520.5C890.878 1215.75 1036.45 957.401 1187.65 786.072C1263.25 700.407 1340.24 636.516 1414.14 599.447C1488.03 562.379 1558.79 552.149 1621.98 573.729C1685.17 595.309 1734.9 646.686 1770.68 721.21C1806.47 795.736 1828.29 893.375 1835.7 1007.39C1850.52 1235.41 1807.66 1528.83 1703.58 1833.59Z" stroke="url(#paint93_linear_41_3958)"/>
<path d="M1700.78 1841.57C1591.4 2144.46 1441.34 2400.23 1287.17 2568.89C1210.09 2653.22 1132 2715.76 1057.46 2751.54C982.934 2787.31 912.004 2796.3 849.199 2773.62C786.395 2750.94 737.577 2698.71 703.098 2623.57C668.619 2548.43 648.498 2450.42 643.081 2336.3C632.245 2108.05 680.223 1815.42 789.603 1512.53C898.983 1209.63 1049.04 953.868 1203.21 785.205C1280.29 700.872 1358.38 638.334 1432.92 602.561C1507.45 566.788 1578.38 557.794 1641.18 580.474C1703.98 603.153 1752.8 655.39 1787.28 730.528C1821.76 805.667 1841.88 903.672 1847.3 1017.8C1858.13 1246.05 1810.16 1538.67 1700.78 1841.57Z" stroke="url(#paint94_linear_41_3958)"/>
<path d="M1697.84 1849.49C1583.19 2150.43 1428.69 2403.54 1271.6 2569.49C1193.06 2652.46 1113.88 2713.63 1038.74 2748.1C963.597 2782.56 892.521 2790.32 830.122 2766.55C767.723 2742.77 719.824 2689.69 686.662 2613.96C653.499 2538.23 635.092 2439.89 631.667 2325.69C624.816 2097.29 677.894 1805.54 792.543 1504.6C907.193 1203.66 1061.69 950.556 1218.78 784.608C1297.32 701.634 1376.49 640.469 1451.64 606.001C1526.78 571.535 1597.86 563.78 1660.26 587.552C1722.66 611.324 1770.56 664.406 1803.72 740.133C1836.88 815.863 1855.29 914.204 1858.71 1028.41C1865.56 1256.81 1812.49 1548.56 1697.84 1849.49Z" stroke="url(#paint95_linear_41_3958)"/>
<path d="M1694.76 1857.37C1574.87 2156.26 1415.98 2406.63 1256.02 2569.81C1176.04 2651.4 1095.82 2711.18 1020.08 2744.33C944.347 2777.48 873.146 2783.99 811.172 2759.13C749.197 2734.28 702.232 2680.37 670.396 2604.07C638.56 2527.77 621.872 2429.13 620.441 2314.88C617.578 2086.4 675.739 1795.62 795.623 1496.73C915.507 1197.84 1074.4 947.462 1234.36 784.281C1314.34 702.69 1394.57 642.916 1470.3 609.766C1546.03 576.616 1617.24 570.103 1679.21 594.96C1741.18 619.818 1788.15 673.727 1819.99 750.022C1851.82 826.319 1868.51 924.966 1869.94 1039.21C1872.8 1267.7 1814.64 1558.47 1694.76 1857.37Z" stroke="url(#paint96_linear_41_3958)"/>
<path d="M1691.54 1865.18C1566.46 2161.94 1403.22 2409.5 1240.44 2569.86C1159.05 2650.05 1077.79 2708.41 1001.49 2740.24C925.187 2772.06 853.884 2777.33 792.353 2751.39C730.822 2725.46 684.804 2670.74 654.305 2593.9C623.805 2517.06 608.842 2418.13 609.404 2303.88C610.529 2075.38 673.756 1785.66 798.839 1488.91C923.921 1192.15 1087.16 944.592 1249.94 784.228C1331.33 704.045 1412.59 645.68 1488.89 613.856C1565.19 582.033 1636.5 576.764 1698.03 602.699C1759.56 628.634 1805.58 683.355 1836.08 760.194C1866.58 837.035 1881.54 935.958 1880.98 1050.21C1879.85 1278.71 1816.63 1568.43 1691.54 1865.18Z" stroke="url(#paint97_linear_41_3958)"/>
<path d="M1688.19 1872.95C1557.95 2167.47 1390.42 2412.15 1224.86 2569.65C1142.08 2648.4 1059.82 2705.33 982.969 2735.82C906.126 2766.31 834.741 2770.33 773.672 2743.33C712.603 2716.32 667.547 2660.81 638.394 2583.45C609.24 2506.08 596.005 2406.92 598.561 2292.69C603.674 2064.24 671.948 1775.67 802.19 1481.15C932.432 1186.62 1099.96 941.945 1265.52 784.446C1348.3 705.696 1430.57 648.758 1507.41 618.271C1584.26 587.785 1655.64 583.76 1716.71 610.766C1777.78 637.771 1822.83 693.286 1851.99 770.646C1881.14 848.007 1894.38 947.177 1891.82 1061.4C1886.71 1289.85 1818.43 1578.42 1688.19 1872.95Z" stroke="url(#paint98_linear_41_3958)"/>
<path d="M1684.71 1880.65C1549.34 2172.86 1377.57 2414.57 1209.29 2569.16C1125.15 2646.45 1041.9 2701.94 964.531 2731.08C887.167 2760.22 815.723 2763 755.134 2734.93C694.546 2706.87 650.466 2650.57 622.667 2572.72C594.868 2494.86 583.366 2395.47 587.915 2281.31C597.014 2052.99 670.314 1765.65 805.676 1473.45C941.039 1181.24 1112.82 939.523 1281.1 784.937C1365.24 707.644 1448.48 652.151 1525.85 623.009C1603.21 593.868 1674.66 591.09 1735.25 619.157C1795.84 647.224 1839.92 703.518 1867.71 781.374C1895.51 859.233 1907.02 958.618 1902.47 1072.78C1893.37 1301.11 1820.07 1588.44 1684.71 1880.65Z" stroke="url(#paint99_linear_41_3958)"/>
</g>
<defs>
<linearGradient id="paint0_linear_41_3958" x1="-9.29248" y1="1824.81" x2="154.416" y2="1040.05" gradientUnits="userSpaceOnUse">
<stop stop-color="#9C83FF"/>
<stop offset="1" stop-color="#FF9051"/>
</linearGradient>
<linearGradient id="paint1_linear_41_3958" x1="-11.6802" y1="1802.9" x2="165.699" y2="1021.11" gradientUnits="userSpaceOnUse">
<stop stop-color="#9C83FF"/>
<stop offset="1" stop-color="#FF9051"/>
</linearGradient>
<linearGradient id="paint2_linear_41_3958" x1="-13.6851" y1="1780.94" x2="177.311" y2="1002.37" gradientUnits="userSpaceOnUse">
<stop stop-color="#9C83FF"/>
<stop offset="1" stop-color="#FF9051"/>
</linearGradient>
<linearGradient id="paint3_linear_41_3958" x1="-15.3062" y1="1758.96" x2="189.249" y2="983.832" gradientUnits="userSpaceOnUse">
<stop stop-color="#9C83FF"/>
<stop offset="1" stop-color="#FF9051"/>
</linearGradient>
<linearGradient id="paint4_linear_41_3958" x1="-16.5444" y1="1736.94" x2="201.508" y2="965.509" gradientUnits="userSpaceOnUse">
<stop stop-color="#9C83FF"/>
<stop offset="1" stop-color="#FF9051"/>
</linearGradient>
<linearGradient id="paint5_linear_41_3958" x1="-17.397" y1="1714.92" x2="214.085" y2="947.402" gradientUnits="userSpaceOnUse">
<stop stop-color="#9C83FF"/>
<stop offset="1" stop-color="#FF9051"/>
</linearGradient>
<linearGradient id="paint6_linear_41_3958" x1="-17.8652" y1="1692.87" x2="226.977" y2="929.517" gradientUnits="userSpaceOnUse">
<stop stop-color="#9C83FF"/>
<stop offset="1" stop-color="#FF9051"/>
</linearGradient>
<linearGradient id="paint7_linear_41_3958" x1="-17.9497" y1="1670.83" x2="240.177" y2="911.86" gradientUnits="userSpaceOnUse">
<stop stop-color="#9C83FF"/>
<stop offset="1" stop-color="#FF9051"/>
</linearGradient>
<linearGradient id="paint8_linear_41_3958" x1="-17.6479" y1="1648.78" x2="253.686" y2="894.436" gradientUnits="userSpaceOnUse">
<stop stop-color="#9C83FF"/>
<stop offset="1" stop-color="#FF9051"/>
</linearGradient>
<linearGradient id="paint9_linear_41_3958" x1="-16.9629" y1="1626.75" x2="267.494" y2="877.252" gradientUnits="userSpaceOnUse">
<stop stop-color="#9C83FF"/>
<stop offset="1" stop-color="#FF9051"/>
</linearGradient>
<linearGradient id="paint10_linear_41_3958" x1="-15.8931" y1="1604.73" x2="281.601" y2="860.311" gradientUnits="userSpaceOnUse">
<stop stop-color="#9C83FF"/>
<stop offset="1" stop-color="#FF9051"/>
</linearGradient>
<linearGradient id="paint11_linear_41_3958" x1="-14.4385" y1="1582.73" x2="296.003" y2="843.618" gradientUnits="userSpaceOnUse">
<stop stop-color="#9C83FF"/>
<stop offset="1" stop-color="#FF9051"/>
</linearGradient>
<linearGradient id="paint12_linear_41_3958" x1="-12.6006" y1="1560.76" x2="310.692" y2="827.179" gradientUnits="userSpaceOnUse">
<stop stop-color="#9C83FF"/>
<stop offset="1" stop-color="#FF9051"/>
</linearGradient>
<linearGradient id="paint13_linear_41_3958" x1="-10.3789" y1="1538.83" x2="325.668" y2="810.998" gradientUnits="userSpaceOnUse">
<stop stop-color="#9C83FF"/>
<stop offset="1" stop-color="#FF9051"/>
</linearGradient>
<linearGradient id="paint14_linear_41_3958" x1="-7.77637" y1="1516.94" x2="340.921" y2="795.083" gradientUnits="userSpaceOnUse">
<stop stop-color="#9C83FF"/>
<stop offset="1" stop-color="#FF9051"/>
</linearGradient>
<linearGradient id="paint15_linear_41_3958" x1="-4.79102" y1="1495.09" x2="356.452" y2="779.437" gradientUnits="userSpaceOnUse">
<stop stop-color="#9C83FF"/>
<stop offset="1" stop-color="#FF9051"/>
</linearGradient>
<linearGradient id="paint16_linear_41_3958" x1="-1.4248" y1="1473.31" x2="372.253" y2="764.062" gradientUnits="userSpaceOnUse">
<stop stop-color="#9C83FF"/>
<stop offset="1" stop-color="#FF9051"/>
</linearGradient>
<linearGradient id="paint17_linear_41_3958" x1="2.3208" y1="1451.58" x2="388.32" y2="748.967" gradientUnits="userSpaceOnUse">
<stop stop-color="#9C83FF"/>
<stop offset="1" stop-color="#FF9051"/>
</linearGradient>
<linearGradient id="paint18_linear_41_3958" x1="6.44531" y1="1429.92" x2="404.648" y2="734.153" gradientUnits="userSpaceOnUse">
<stop stop-color="#9C83FF"/>
<stop offset="1" stop-color="#FF9051"/>
</linearGradient>
<linearGradient id="paint19_linear_41_3958" x1="10.9468" y1="1408.34" x2="421.231" y2="719.627" gradientUnits="userSpaceOnUse">
<stop stop-color="#9C83FF"/>
<stop offset="1" stop-color="#FF9051"/>
</linearGradient>
<linearGradient id="paint20_linear_41_3958" x1="15.8237" y1="1386.84" x2="438.065" y2="705.394" gradientUnits="userSpaceOnUse">
<stop stop-color="#9C83FF"/>
<stop offset="1" stop-color="#FF9051"/>
</linearGradient>
<linearGradient id="paint21_linear_41_3958" x1="21.0762" y1="1365.43" x2="455.146" y2="691.454" gradientUnits="userSpaceOnUse">
<stop stop-color="#9C83FF"/>
<stop offset="1" stop-color="#FF9051"/>
</linearGradient>
<linearGradient id="paint22_linear_41_3958" x1="26.7012" y1="1344.11" x2="472.468" y2="677.817" gradientUnits="userSpaceOnUse">
<stop stop-color="#9C83FF"/>
<stop offset="1" stop-color="#FF9051"/>
</linearGradient>
<linearGradient id="paint23_linear_41_3958" x1="32.6973" y1="1322.9" x2="490.025" y2="664.483" gradientUnits="userSpaceOnUse">
<stop stop-color="#9C83FF"/>
<stop offset="1" stop-color="#FF9051"/>
</linearGradient>
<linearGradient id="paint24_linear_41_3958" x1="39.0625" y1="1301.79" x2="507.811" y2="651.458" gradientUnits="userSpaceOnUse">
<stop stop-color="#9C83FF"/>
<stop offset="1" stop-color="#FF9051"/>
</linearGradient>
<linearGradient id="paint25_linear_41_3958" x1="45.7949" y1="1280.8" x2="525.822" y2="638.745" gradientUnits="userSpaceOnUse">
<stop stop-color="#9C83FF"/>
<stop offset="1" stop-color="#FF9051"/>
</linearGradient>
<linearGradient id="paint26_linear_41_3958" x1="52.8926" y1="1259.93" x2="544.052" y2="626.349" gradientUnits="userSpaceOnUse">
<stop stop-color="#9C83FF"/>
<stop offset="1" stop-color="#FF9051"/>
</linearGradient>
<linearGradient id="paint27_linear_41_3958" x1="60.355" y1="1239.18" x2="562.497" y2="614.271" gradientUnits="userSpaceOnUse">
<stop stop-color="#9C83FF"/>
<stop offset="1" stop-color="#FF9051"/>
</linearGradient>
<linearGradient id="paint28_linear_41_3958" x1="68.1772" y1="1218.57" x2="581.149" y2="602.519" gradientUnits="userSpaceOnUse">
<stop stop-color="#9C83FF"/>
<stop offset="1" stop-color="#FF9051"/>
</linearGradient>
<linearGradient id="paint29_linear_41_3958" x1="76.3569" y1="1198.1" x2="600.002" y2="591.094" gradientUnits="userSpaceOnUse">
<stop stop-color="#9C83FF"/>
<stop offset="1" stop-color="#FF9051"/>
</linearGradient>
<linearGradient id="paint30_linear_41_3958" x1="84.894" y1="1177.77" x2="619.053" y2="579.999" gradientUnits="userSpaceOnUse">
<stop stop-color="#9C83FF"/>
<stop offset="1" stop-color="#FF9051"/>
</linearGradient>
<linearGradient id="paint31_linear_41_3958" x1="93.7847" y1="1157.6" x2="638.295" y2="569.238" gradientUnits="userSpaceOnUse">
<stop stop-color="#9C83FF"/>
<stop offset="1" stop-color="#FF9051"/>
</linearGradient>
<linearGradient id="paint32_linear_41_3958" x1="103.025" y1="1137.58" x2="657.721" y2="558.816" gradientUnits="userSpaceOnUse">
<stop stop-color="#9C83FF"/>
<stop offset="1" stop-color="#FF9051"/>
</linearGradient>
<linearGradient id="paint33_linear_41_3958" x1="112.615" y1="1117.73" x2="677.327" y2="548.733" gradientUnits="userSpaceOnUse">
<stop stop-color="#9C83FF"/>
<stop offset="1" stop-color="#FF9051"/>
</linearGradient>
<linearGradient id="paint34_linear_41_3958" x1="122.549" y1="1098.05" x2="697.105" y2="538.993" gradientUnits="userSpaceOnUse">
<stop stop-color="#9C83FF"/>
<stop offset="1" stop-color="#FF9051"/>
</linearGradient>
<linearGradient id="paint35_linear_41_3958" x1="132.824" y1="1078.55" x2="717.05" y2="529.602" gradientUnits="userSpaceOnUse">
<stop stop-color="#9C83FF"/>
<stop offset="1" stop-color="#FF9051"/>
</linearGradient>
<linearGradient id="paint36_linear_41_3958" x1="143.438" y1="1059.23" x2="737.156" y2="520.56" gradientUnits="userSpaceOnUse">
<stop stop-color="#9C83FF"/>
<stop offset="1" stop-color="#FF9051"/>
</linearGradient>
<linearGradient id="paint37_linear_41_3958" x1="154.389" y1="1040.09" x2="757.417" y2="511.869" gradientUnits="userSpaceOnUse">
<stop stop-color="#9C83FF"/>
<stop offset="1" stop-color="#FF9051"/>
</linearGradient>
<linearGradient id="paint38_linear_41_3958" x1="165.671" y1="1021.15" x2="777.826" y2="503.533" gradientUnits="userSpaceOnUse">
<stop stop-color="#9C83FF"/>
<stop offset="1" stop-color="#FF9051"/>
</linearGradient>
<linearGradient id="paint39_linear_41_3958" x1="177.283" y1="1002.41" x2="798.379" y2="495.556" gradientUnits="userSpaceOnUse">
<stop stop-color="#9C83FF"/>
<stop offset="1" stop-color="#FF9051"/>
</linearGradient>
<linearGradient id="paint40_linear_41_3958" x1="189.22" y1="983.875" x2="819.066" y2="487.938" gradientUnits="userSpaceOnUse">
<stop stop-color="#9C83FF"/>
<stop offset="1" stop-color="#FF9051"/>
</linearGradient>
<linearGradient id="paint41_linear_41_3958" x1="201.479" y1="965.551" x2="839.885" y2="480.681" gradientUnits="userSpaceOnUse">
<stop stop-color="#9C83FF"/>
<stop offset="1" stop-color="#FF9051"/>
</linearGradient>
<linearGradient id="paint42_linear_41_3958" x1="214.055" y1="947.444" x2="860.826" y2="473.79" gradientUnits="userSpaceOnUse">
<stop stop-color="#9C83FF"/>
<stop offset="1" stop-color="#FF9051"/>
</linearGradient>
<linearGradient id="paint43_linear_41_3958" x1="226.945" y1="929.559" x2="881.884" y2="467.265" gradientUnits="userSpaceOnUse">
<stop stop-color="#9C83FF"/>
<stop offset="1" stop-color="#FF9051"/>
</linearGradient>
<linearGradient id="paint44_linear_41_3958" x1="240.146" y1="911.902" x2="903.053" y2="461.108" gradientUnits="userSpaceOnUse">
<stop stop-color="#9C83FF"/>
<stop offset="1" stop-color="#FF9051"/>
</linearGradient>
<linearGradient id="paint45_linear_41_3958" x1="253.652" y1="894.479" x2="924.325" y2="455.324" gradientUnits="userSpaceOnUse">
<stop stop-color="#9C83FF"/>
<stop offset="1" stop-color="#FF9051"/>
</linearGradient>
<linearGradient id="paint46_linear_41_3958" x1="267.46" y1="877.294" x2="945.696" y2="449.91" gradientUnits="userSpaceOnUse">
<stop stop-color="#9C83FF"/>
<stop offset="1" stop-color="#FF9051"/>
</linearGradient>
<linearGradient id="paint47_linear_41_3958" x1="281.567" y1="860.352" x2="967.158" y2="444.87" gradientUnits="userSpaceOnUse">
<stop stop-color="#9C83FF"/>
<stop offset="1" stop-color="#FF9051"/>
</linearGradient>
<linearGradient id="paint48_linear_41_3958" x1="295.968" y1="843.658" x2="988.706" y2="440.205" gradientUnits="userSpaceOnUse">
<stop stop-color="#9C83FF"/>
<stop offset="1" stop-color="#FF9051"/>
</linearGradient>
<linearGradient id="paint49_linear_41_3958" x1="310.656" y1="827.221" x2="1010.33" y2="435.919" gradientUnits="userSpaceOnUse">
<stop stop-color="#9C83FF"/>
<stop offset="1" stop-color="#FF9051"/>
</linearGradient>
<linearGradient id="paint50_linear_41_3958" x1="325.63" y1="811.04" x2="1032.03" y2="432.008" gradientUnits="userSpaceOnUse">
<stop stop-color="#9C83FF"/>
<stop offset="1" stop-color="#FF9051"/>
</linearGradient>
<linearGradient id="paint51_linear_41_3958" x1="340.884" y1="795.123" x2="1053.79" y2="428.477" gradientUnits="userSpaceOnUse">
<stop stop-color="#9C83FF"/>
<stop offset="1" stop-color="#FF9051"/>
</linearGradient>
<linearGradient id="paint52_linear_41_3958" x1="356.413" y1="779.475" x2="1075.61" y2="425.327" gradientUnits="userSpaceOnUse">
<stop stop-color="#9C83FF"/>
<stop offset="1" stop-color="#FF9051"/>
</linearGradient>
<linearGradient id="paint53_linear_41_3958" x1="372.213" y1="764.1" x2="1097.48" y2="422.558" gradientUnits="userSpaceOnUse">
<stop stop-color="#9C83FF"/>
<stop offset="1" stop-color="#FF9051"/>
</linearGradient>
<linearGradient id="paint54_linear_41_3958" x1="388.279" y1="749.004" x2="1119.39" y2="420.171" gradientUnits="userSpaceOnUse">
<stop stop-color="#9C83FF"/>
<stop offset="1" stop-color="#FF9051"/>
</linearGradient>
<linearGradient id="paint55_linear_41_3958" x1="404.606" y1="734.19" x2="1141.35" y2="418.167" gradientUnits="userSpaceOnUse">
<stop stop-color="#9C83FF"/>
<stop offset="1" stop-color="#FF9051"/>
</linearGradient>
<linearGradient id="paint56_linear_41_3958" x1="421.19" y1="719.663" x2="1163.34" y2="416.547" gradientUnits="userSpaceOnUse">
<stop stop-color="#9C83FF"/>
<stop offset="1" stop-color="#FF9051"/>
</linearGradient>
<linearGradient id="paint57_linear_41_3958" x1="438.024" y1="705.427" x2="1185.35" y2="415.309" gradientUnits="userSpaceOnUse">
<stop stop-color="#9C83FF"/>
<stop offset="1" stop-color="#FF9051"/>
</linearGradient>
<linearGradient id="paint58_linear_41_3958" x1="455.104" y1="691.489" x2="1207.38" y2="414.458" gradientUnits="userSpaceOnUse">
<stop stop-color="#9C83FF"/>
<stop offset="1" stop-color="#FF9051"/>
</linearGradient>
<linearGradient id="paint59_linear_41_3958" x1="472.425" y1="677.85" x2="1229.42" y2="413.99" gradientUnits="userSpaceOnUse">
<stop stop-color="#9C83FF"/>
<stop offset="1" stop-color="#FF9051"/>
</linearGradient>
<linearGradient id="paint60_linear_41_3958" x1="489.98" y1="664.516" x2="1251.46" y2="413.908" gradientUnits="userSpaceOnUse">
<stop stop-color="#9C83FF"/>
<stop offset="1" stop-color="#FF9051"/>
</linearGradient>
<linearGradient id="paint61_linear_41_3958" x1="507.767" y1="651.49" x2="1273.51" y2="414.21" gradientUnits="userSpaceOnUse">
<stop stop-color="#9C83FF"/>
<stop offset="1" stop-color="#FF9051"/>
</linearGradient>
<linearGradient id="paint62_linear_41_3958" x1="525.778" y1="638.776" x2="1295.54" y2="414.896" gradientUnits="userSpaceOnUse">
<stop stop-color="#9C83FF"/>
<stop offset="1" stop-color="#FF9051"/>
</linearGradient>
<linearGradient id="paint63_linear_41_3958" x1="544.007" y1="626.379" x2="1317.56" y2="415.967" gradientUnits="userSpaceOnUse">
<stop stop-color="#9C83FF"/>
<stop offset="1" stop-color="#FF9051"/>
</linearGradient>
<linearGradient id="paint64_linear_41_3958" x1="562.451" y1="614.302" x2="1339.56" y2="417.422" gradientUnits="userSpaceOnUse">
<stop stop-color="#9C83FF"/>
<stop offset="1" stop-color="#FF9051"/>
</linearGradient>
<linearGradient id="paint65_linear_41_3958" x1="581.103" y1="602.548" x2="1361.53" y2="419.261" gradientUnits="userSpaceOnUse">
<stop stop-color="#9C83FF"/>
<stop offset="1" stop-color="#FF9051"/>
</linearGradient>
<linearGradient id="paint66_linear_41_3958" x1="599.956" y1="591.121" x2="1383.46" y2="421.482" gradientUnits="userSpaceOnUse">
<stop stop-color="#9C83FF"/>
<stop offset="1" stop-color="#FF9051"/>
</linearGradient>
<linearGradient id="paint67_linear_41_3958" x1="619.006" y1="580.026" x2="1405.35" y2="424.087" gradientUnits="userSpaceOnUse">
<stop stop-color="#9C83FF"/>
<stop offset="1" stop-color="#FF9051"/>
</linearGradient>
<linearGradient id="paint68_linear_41_3958" x1="638.248" y1="569.265" x2="1427.2" y2="427.073" gradientUnits="userSpaceOnUse">
<stop stop-color="#9C83FF"/>
<stop offset="1" stop-color="#FF9051"/>
</linearGradient>
<linearGradient id="paint69_linear_41_3958" x1="657.673" y1="558.842" x2="1448.98" y2="430.441" gradientUnits="userSpaceOnUse">
<stop stop-color="#9C83FF"/>
<stop offset="1" stop-color="#FF9051"/>
</linearGradient>
<linearGradient id="paint70_linear_41_3958" x1="677.279" y1="548.757" x2="1470.71" y2="434.186" gradientUnits="userSpaceOnUse">
<stop stop-color="#9C83FF"/>
<stop offset="1" stop-color="#FF9051"/>
</linearGradient>
<linearGradient id="paint71_linear_41_3958" x1="697.057" y1="539.017" x2="1492.37" y2="438.311" gradientUnits="userSpaceOnUse">
<stop stop-color="#9C83FF"/>
<stop offset="1" stop-color="#FF9051"/>
</linearGradient>
<linearGradient id="paint72_linear_41_3958" x1="717.001" y1="529.625" x2="1513.95" y2="442.815" gradientUnits="userSpaceOnUse">
<stop stop-color="#9C83FF"/>
<stop offset="1" stop-color="#FF9051"/>
</linearGradient>
<linearGradient id="paint73_linear_41_3958" x1="737.107" y1="520.581" x2="1535.45" y2="447.692" gradientUnits="userSpaceOnUse">
<stop stop-color="#9C83FF"/>
<stop offset="1" stop-color="#FF9051"/>
</linearGradient>
<linearGradient id="paint74_linear_41_3958" x1="757.368" y1="511.89" x2="1556.86" y2="452.945" gradientUnits="userSpaceOnUse">
<stop stop-color="#9C83FF"/>
<stop offset="1" stop-color="#FF9051"/>
</linearGradient>
<linearGradient id="paint75_linear_41_3958" x1="777.776" y1="503.554" x2="1578.17" y2="458.571" gradientUnits="userSpaceOnUse">
<stop stop-color="#9C83FF"/>
<stop offset="1" stop-color="#FF9051"/>
</linearGradient>
<linearGradient id="paint76_linear_41_3958" x1="798.328" y1="495.575" x2="1599.39" y2="464.568" gradientUnits="userSpaceOnUse">
<stop stop-color="#9C83FF"/>
<stop offset="1" stop-color="#FF9051"/>
</linearGradient>
<linearGradient id="paint77_linear_41_3958" x1="819.015" y1="487.958" x2="1620.5" y2="470.936" gradientUnits="userSpaceOnUse">
<stop stop-color="#9C83FF"/>
<stop offset="1" stop-color="#FF9051"/>
</linearGradient>
<linearGradient id="paint78_linear_41_3958" x1="839.833" y1="480.7" x2="1641.49" y2="477.668" gradientUnits="userSpaceOnUse">
<stop stop-color="#9C83FF"/>
<stop offset="1" stop-color="#FF9051"/>
</linearGradient>
<linearGradient id="paint79_linear_41_3958" x1="860.773" y1="473.809" x2="1662.36" y2="484.768" gradientUnits="userSpaceOnUse">
<stop stop-color="#9C83FF"/>
<stop offset="1" stop-color="#FF9051"/>
</linearGradient>
<linearGradient id="paint80_linear_41_3958" x1="881.832" y1="467.282" x2="1683.1" y2="492.23" gradientUnits="userSpaceOnUse">
<stop stop-color="#9C83FF"/>
<stop offset="1" stop-color="#FF9051"/>
</linearGradient>
<linearGradient id="paint81_linear_41_3958" x1="903" y1="461.126" x2="1703.72" y2="500.054" gradientUnits="userSpaceOnUse">
<stop stop-color="#9C83FF"/>
<stop offset="1" stop-color="#FF9051"/>
</linearGradient>
<linearGradient id="paint82_linear_41_3958" x1="924.273" y1="455.339" x2="1724.19" y2="508.235" gradientUnits="userSpaceOnUse">
<stop stop-color="#9C83FF"/>
<stop offset="1" stop-color="#FF9051"/>
</linearGradient>
<linearGradient id="paint83_linear_41_3958" x1="945.644" y1="449.924" x2="1744.51" y2="516.773" gradientUnits="userSpaceOnUse">
<stop stop-color="#9C83FF"/>
<stop offset="1" stop-color="#FF9051"/>
</linearGradient>
<linearGradient id="paint84_linear_41_3958" x1="967.105" y1="444.882" x2="1764.69" y2="525.663" gradientUnits="userSpaceOnUse">
<stop stop-color="#9C83FF"/>
<stop offset="1" stop-color="#FF9051"/>
</linearGradient>
<linearGradient id="paint85_linear_41_3958" x1="988.652" y1="440.218" x2="1784.7" y2="534.906" gradientUnits="userSpaceOnUse">
<stop stop-color="#9C83FF"/>
<stop offset="1" stop-color="#FF9051"/>
</linearGradient>
<linearGradient id="paint86_linear_41_3958" x1="1010.28" y1="435.928" x2="1804.55" y2="544.495" gradientUnits="userSpaceOnUse">
<stop stop-color="#9C83FF"/>
<stop offset="1" stop-color="#FF9051"/>
</linearGradient>
<linearGradient id="paint87_linear_41_3958" x1="1031.97" y1="432.016" x2="1824.23" y2="554.428" gradientUnits="userSpaceOnUse">
<stop stop-color="#9C83FF"/>
<stop offset="1" stop-color="#FF9051"/>
</linearGradient>
<linearGradient id="paint88_linear_41_3958" x1="1053.73" y1="428.485" x2="1843.74" y2="564.706" gradientUnits="userSpaceOnUse">
<stop stop-color="#9C83FF"/>
<stop offset="1" stop-color="#FF9051"/>
</linearGradient>
<linearGradient id="paint89_linear_41_3958" x1="1075.55" y1="425.335" x2="1863.06" y2="575.322" gradientUnits="userSpaceOnUse">
<stop stop-color="#9C83FF"/>
<stop offset="1" stop-color="#FF9051"/>
</linearGradient>
<linearGradient id="paint90_linear_41_3958" x1="1097.43" y1="422.564" x2="1882.19" y2="586.272" gradientUnits="userSpaceOnUse">
<stop stop-color="#9C83FF"/>
<stop offset="1" stop-color="#FF9051"/>
</linearGradient>
<linearGradient id="paint91_linear_41_3958" x1="1119.34" y1="420.177" x2="1901.13" y2="597.556" gradientUnits="userSpaceOnUse">
<stop stop-color="#9C83FF"/>
<stop offset="1" stop-color="#FF9051"/>
</linearGradient>
<linearGradient id="paint92_linear_41_3958" x1="1141.3" y1="418.171" x2="1919.87" y2="609.167" gradientUnits="userSpaceOnUse">
<stop stop-color="#9C83FF"/>
<stop offset="1" stop-color="#FF9051"/>
</linearGradient>
<linearGradient id="paint93_linear_41_3958" x1="1163.28" y1="416.55" x2="1938.41" y2="621.106" gradientUnits="userSpaceOnUse">
<stop stop-color="#9C83FF"/>
<stop offset="1" stop-color="#FF9051"/>
</linearGradient>
<linearGradient id="paint94_linear_41_3958" x1="1185.29" y1="415.314" x2="1956.73" y2="633.366" gradientUnits="userSpaceOnUse">
<stop stop-color="#9C83FF"/>
<stop offset="1" stop-color="#FF9051"/>
</linearGradient>
<linearGradient id="paint95_linear_41_3958" x1="1207.32" y1="414.461" x2="1974.84" y2="645.943" gradientUnits="userSpaceOnUse">
<stop stop-color="#9C83FF"/>
<stop offset="1" stop-color="#FF9051"/>
</linearGradient>
<linearGradient id="paint96_linear_41_3958" x1="1229.36" y1="413.991" x2="1992.72" y2="658.833" gradientUnits="userSpaceOnUse">
<stop stop-color="#9C83FF"/>
<stop offset="1" stop-color="#FF9051"/>
</linearGradient>
<linearGradient id="paint97_linear_41_3958" x1="1251.41" y1="413.906" x2="2010.38" y2="672.033" gradientUnits="userSpaceOnUse">
<stop stop-color="#9C83FF"/>
<stop offset="1" stop-color="#FF9051"/>
</linearGradient>
<linearGradient id="paint98_linear_41_3958" x1="1273.45" y1="414.207" x2="2027.8" y2="685.541" gradientUnits="userSpaceOnUse">
<stop stop-color="#9C83FF"/>
<stop offset="1" stop-color="#FF9051"/>
</linearGradient>
<linearGradient id="paint99_linear_41_3958" x1="1295.49" y1="414.893" x2="2044.99" y2="699.35" gradientUnits="userSpaceOnUse">
<stop stop-color="#9C83FF"/>
<stop offset="1" stop-color="#FF9051"/>
</linearGradient>
</defs>
</svg>
