<svg width="166" height="160" viewBox="0 0 166 160" fill="none" xmlns="http://www.w3.org/2000/svg">
<g clip-path="url(#clip0_64_626)">
<mask id="mask0_64_626" style="mask-type:luminance" maskUnits="userSpaceOnUse" x="0" y="0" width="166" height="160">
<path d="M166 0H0V160H166V0Z" fill="white"/>
</mask>
<g mask="url(#mask0_64_626)">
<path fill-rule="evenodd" clip-rule="evenodd" d="M80.2148 159.964C64.5041 160.683 50.7286 150.506 37.4625 141.207C23.3079 131.285 6.11931 122.336 1.28572 104.638C-3.52746 87.015 6.22312 69.1225 13.2088 52.4054C19.4065 37.5743 27.0113 23.4973 39.1244 14.0885C51.1153 4.77461 65.6525 -1.61457 80.2148 0.358714C94.0015 2.2269 102.256 17.216 114.563 24.3108C130.133 33.2867 152.729 30.543 161.582 47.2654C170.446 64.0104 164.506 86.4088 156.605 103.729C149.342 119.651 133.911 127.508 120.462 137.409C107.633 146.852 95.6312 159.258 80.2148 159.964Z" fill="#6344C6"/>
<path d="M54.7358 73.6492H46.9119C45.8744 73.6492 44.8794 74.0614 44.1458 74.795C43.4121 75.5286 43 76.5236 43 77.5611C43 78.5987 43.4121 79.5937 44.1458 80.3273C44.8794 81.0609 45.8744 81.4731 46.9119 81.4731H54.7358C55.7733 81.4731 56.7683 81.0609 57.5019 80.3273C58.2356 79.5937 58.6477 78.5987 58.6477 77.5611C58.6477 76.5236 58.2356 75.5286 57.5019 74.795C56.7683 74.0614 55.7733 73.6492 54.7358 73.6492ZM120.378 62.5393V62.3046C119.257 60.9346 117.841 59.8359 116.235 59.0907C114.63 58.3455 112.876 57.9732 111.107 58.0015H80.0851C77.2106 57.9757 74.4266 59.0058 72.2612 60.8963C70.2388 62.6783 68.9091 65.1161 68.5058 67.7813L65.0633 87.341C64.7672 89.0301 64.845 90.7636 65.2911 92.4195C65.7371 94.0753 66.5407 95.6133 67.6451 96.9252C68.7438 98.2327 70.1147 99.2846 71.6619 100.008C73.2092 100.731 74.8956 101.107 76.6035 101.111H107.664C110.454 101.153 113.168 100.2 115.319 98.4218C117.47 96.6438 118.917 94.1577 119.4 91.4094L122.842 71.8497C123.114 70.2118 123.034 68.535 122.609 66.9301C122.184 65.3251 121.424 63.8286 120.378 62.5393ZM109.659 65.8254L96.3587 76.6223C95.5723 77.2561 94.5712 77.5611 93.565 77.4737C92.5588 77.3862 91.6254 76.9129 90.9602 76.1529L81.8454 65.8254H109.659ZM111.537 89.962C111.379 90.8804 110.898 91.7122 110.18 92.3075C109.463 92.9028 108.557 93.2224 107.625 93.2089H76.6035C76.0354 93.2041 75.4751 93.0756 74.9617 92.8324C74.4483 92.5892 73.994 92.2371 73.6304 91.8006C73.2659 91.3663 73.0001 90.858 72.8515 90.3109C72.7029 89.7638 72.675 89.1909 72.7698 88.6319L75.8993 70.9109L85.0923 81.3166C87.0933 83.5909 89.8962 85.0033 92.9147 85.2585C95.9331 85.5137 98.9333 84.5918 101.288 82.6858L114.745 71.6933L111.537 89.962ZM58.6477 58.0015H46.9119C45.8744 58.0015 44.8794 58.4137 44.1458 59.1473C43.4121 59.8809 43 60.8759 43 61.9134C43 62.9509 43.4121 63.946 44.1458 64.6796C44.8794 65.4132 45.8744 65.8254 46.9119 65.8254H58.6477C59.6852 65.8254 60.6802 65.4132 61.4139 64.6796C62.1475 63.946 62.5596 62.9509 62.5596 61.9134C62.5596 60.8759 62.1475 59.8809 61.4139 59.1473C60.6802 58.4137 59.6852 58.0015 58.6477 58.0015Z" fill="white"/>
</g>
</g>
<defs>
<clipPath id="clip0_64_626">
<rect width="166" height="160" fill="white"/>
</clipPath>
</defs>
</svg>
