<svg width="2140" height="295" viewBox="0 0 2140 295" fill="none" xmlns="http://www.w3.org/2000/svg">
<path d="M0 295L71.3333 258.125C142.667 221.25 285.333 147.5 428 147.5C570.667 147.5 713.333 221.25 856 221.25C998.667 221.25 1141.33 147.5 1284 135.285C1426.67 122.148 1569.33 172.852 1712 159.715C1854.67 147.5 1997.33 73.75 2068.67 36.875L2140 0V295H2068.67C1997.33 295 1854.67 295 1712 295C1569.33 295 1426.67 295 1284 295C1141.33 295 998.667 295 856 295C713.333 295 570.667 295 428 295C285.333 295 142.667 295 71.3333 295H0Z" fill="url(#paint0_linear_64_521)"/>
<defs>
<linearGradient id="paint0_linear_64_521" x1="19.5051" y1="147.1" x2="1873.74" y2="905.83" gradientUnits="userSpaceOnUse">
<stop stop-color="#9C83FF"/>
<stop offset="1" stop-color="#FF9051"/>
</linearGradient>
</defs>
</svg>
