<svg width="2140" height="281" viewBox="0 0 2140 281" fill="none" xmlns="http://www.w3.org/2000/svg">
<path d="M0 280.5V252.661C71.3333 213.177 285.333 113.999 428 113.999C570.667 113.999 713.333 158.703 856 158.703C998.667 158.703 1141.33 113.999 1284 100.92C1426.67 86.854 1569.33 149.71 1712 135.644C1854.67 122.565 2068.67 39.9837 2140 0.5V280.5C2068.67 280.5 1854.67 280.5 1712 280.5C1569.33 280.5 1426.67 280.5 1284 280.5C1141.33 280.5 998.667 280.5 856 280.5C713.333 280.5 570.667 280.5 428 280.5C285.333 280.5 142.667 280.5 71.3333 280.5H0Z" fill="url(#paint0_linear_66_678)"/>
<defs>
<linearGradient id="paint0_linear_66_678" x1="19.505" y1="122.137" x2="1908.36" y2="843.965" gradientUnits="userSpaceOnUse">
<stop stop-color="#9C83FF"/>
<stop offset="1" stop-color="#FF9051"/>
</linearGradient>
</defs>
</svg>
