<svg width="166" height="160" viewBox="0 0 166 160" fill="none" xmlns="http://www.w3.org/2000/svg">
<g clip-path="url(#clip0_64_587)">
<path fill-rule="evenodd" clip-rule="evenodd" d="M80.2148 159.964C64.5041 160.683 50.7286 150.506 37.4625 141.207C23.3079 131.285 6.11931 122.336 1.28572 104.638C-3.52746 87.015 6.22312 69.1225 13.2088 52.4054C19.4065 37.5743 27.0113 23.4973 39.1244 14.0885C51.1153 4.77461 65.6525 -1.61457 80.2148 0.358714C94.0015 2.2269 102.256 17.216 114.563 24.3108C130.133 33.2867 152.729 30.543 161.582 47.2654C170.446 64.0104 164.506 86.4088 156.605 103.729C149.342 119.651 133.911 127.508 120.462 137.409C107.633 146.852 95.6312 159.258 80.2148 159.964Z" fill="#6344C6"/>
<path d="M82.9998 40C73.5018 40.0004 64.3138 43.466 57.0799 49.7766C49.8459 56.0872 45.0381 64.831 43.5166 74.4436C41.9952 84.0562 43.8594 93.9102 48.7757 102.242C53.692 110.575 61.3395 116.841 70.35 119.921C72.35 120.28 73.1 119.05 73.1 117.973C73.1 116.999 73.0499 113.77 73.0499 110.335C63 112.232 60.4 107.823 59.6 105.516C58.7123 103.273 57.3051 101.284 55.5 99.7233C54.1 98.9543 52.1 97.0575 55.45 97.0063C56.7291 97.1486 57.956 97.605 59.0265 98.3367C60.0971 99.0685 60.9798 100.054 61.6 101.21C62.1471 102.218 62.8827 103.105 63.7647 103.82C64.6468 104.536 65.6578 105.066 66.7401 105.38C67.8223 105.695 68.9544 105.787 70.0714 105.652C71.1885 105.517 72.2686 105.157 73.2498 104.593C73.423 102.508 74.3292 100.559 75.7999 99.1082C66.8999 98.0829 57.6 94.5455 57.6 78.8587C57.5438 74.7827 59.0107 70.8392 61.7 67.8368C60.4771 64.2943 60.6202 60.4067 62.1 56.9687C62.1 56.9687 65.4498 55.8921 73.0999 61.1724C79.645 59.3268 86.5547 59.3268 93.0998 61.1724C100.75 55.8409 104.1 56.9687 104.1 56.9687C105.58 60.4066 105.723 64.2943 104.5 67.8368C107.197 70.834 108.665 74.781 108.6 78.8587C108.6 94.5968 99.2496 98.0829 90.3498 99.1082C91.3044 100.1 92.0396 101.291 92.5054 102.6C92.9713 103.91 93.157 105.306 93.0498 106.695C93.0498 112.181 92.9997 116.589 92.9997 117.974C92.9997 119.05 93.7497 120.332 95.7497 119.922C104.744 116.817 112.37 110.535 117.265 102.199C122.161 93.862 124.007 84.013 122.475 74.4098C120.943 64.8065 116.132 56.074 108.902 49.7711C101.671 43.4682 92.4906 40.0051 82.9998 40Z" fill="white"/>
</g>
<defs>
<clipPath id="clip0_64_587">
<rect width="166" height="160" fill="white"/>
</clipPath>
</defs>
</svg>
