<svg width="166" height="160" viewBox="0 0 166 160" fill="none" xmlns="http://www.w3.org/2000/svg">
<g clip-path="url(#clip0_64_655)">
<path fill-rule="evenodd" clip-rule="evenodd" d="M85.7852 0.0360205C101.496 -0.682995 115.271 9.49381 128.538 18.7928C142.692 28.7146 159.881 37.6645 164.714 55.3621C169.527 72.985 159.777 90.8774 152.791 107.595C146.594 122.426 138.989 136.503 126.876 145.912C114.885 155.225 100.348 161.615 85.7852 159.641C71.9985 157.773 63.7442 142.784 51.4371 135.689C35.8671 126.713 13.2706 129.457 4.4181 112.735C-4.44637 95.9896 1.49371 73.5911 9.39468 56.2707C16.6576 40.3489 32.0889 32.492 45.5382 22.5914C58.3669 13.1476 70.3688 0.741563 85.7852 0.0360205Z" fill="#6344C6"/>
<path d="M112.667 43C114.877 43 116.996 43.878 118.559 45.4408C120.122 47.0036 121 49.1232 121 51.3333V109.667C121 111.877 120.122 113.996 118.559 115.559C116.996 117.122 114.877 118 112.667 118H54.3333C52.1232 118 50.0036 117.122 48.4408 115.559C46.878 113.996 46 111.877 46 109.667V51.3333C46 49.1232 46.878 47.0036 48.4408 45.4408C50.0036 43.878 52.1232 43 54.3333 43H112.667ZM110.583 107.583V85.5C110.583 81.8975 109.152 78.4425 106.605 75.8951C104.057 73.3478 100.603 71.9167 97 71.9167C93.4583 71.9167 89.3333 74.0833 87.3333 77.3333V72.7083H75.7083V107.583H87.3333V87.0417C87.3333 83.8333 89.9167 81.2083 93.125 81.2083C94.6721 81.2083 96.1558 81.8229 97.2498 82.9169C98.3438 84.0108 98.9583 85.4946 98.9583 87.0417V107.583H110.583ZM62.1667 66.1667C64.0232 66.1667 65.8037 65.4292 67.1164 64.1164C68.4292 62.8037 69.1667 61.0232 69.1667 59.1667C69.1667 55.2917 66.0417 52.125 62.1667 52.125C60.2991 52.125 58.508 52.8669 57.1875 54.1875C55.8669 55.508 55.125 57.2991 55.125 59.1667C55.125 63.0417 58.2917 66.1667 62.1667 66.1667ZM67.9583 107.583V72.7083H56.4167V107.583H67.9583Z" fill="white"/>
</g>
<defs>
<clipPath id="clip0_64_655">
<rect width="166" height="160" fill="white"/>
</clipPath>
</defs>
</svg>
