<svg width="166" height="160" viewBox="0 0 166 160" fill="none" xmlns="http://www.w3.org/2000/svg">
<g clip-path="url(#clip0_64_635)">
<path fill-rule="evenodd" clip-rule="evenodd" d="M80.2148 159.964C64.5041 160.683 50.7286 150.506 37.4625 141.207C23.3079 131.285 6.11931 122.336 1.28572 104.638C-3.52746 87.015 6.22312 69.1225 13.2088 52.4054C19.4065 37.5743 27.0113 23.4973 39.1244 14.0885C51.1153 4.77461 65.6525 -1.61457 80.2148 0.358714C94.0015 2.2269 102.256 17.216 114.563 24.3108C130.133 33.2867 152.729 30.543 161.582 47.2654C170.446 64.0104 164.506 86.4088 156.605 103.729C149.342 119.651 133.911 127.508 120.462 137.409C107.633 146.852 95.6312 159.258 80.2148 159.964Z" fill="#6344C6"/>
<mask id="mask0_64_635" style="mask-type:luminance" maskUnits="userSpaceOnUse" x="43" y="40" width="80" height="80">
<path d="M123 40H43V120H123V40Z" fill="white"/>
</mask>
<g mask="url(#mask0_64_635)">
<path d="M83 40C105.092 40 123 57.908 123 80C123 102.092 105.092 120 83 120C75.9311 120.011 68.9867 118.141 62.88 114.58L43.0161 120L48.4241 100.128C44.8604 94.0195 42.9882 87.072 43.0001 80C43.0001 57.908 60.908 40 83 40ZM69.368 61.2L68.568 61.232C68.0501 61.2635 67.544 61.3996 67.08 61.632C66.6461 61.8777 66.25 62.1849 65.904 62.544C65.424 62.996 65.152 63.388 64.86 63.768C63.3805 65.6916 62.5839 68.0532 62.596 70.48C62.604 72.44 63.116 74.348 63.916 76.132C65.552 79.74 68.244 83.56 71.796 87.1C72.652 87.952 73.492 88.808 74.396 89.604C78.8096 93.4898 84.069 96.2921 89.756 97.788L92.028 98.136C92.768 98.176 93.508 98.12 94.252 98.084C95.417 98.0238 96.5545 97.7084 97.584 97.16C98.1078 96.8901 98.619 96.5965 99.116 96.28C99.116 96.28 99.288 96.168 99.616 95.92C100.156 95.52 100.488 95.236 100.936 94.768C101.268 94.424 101.556 94.02 101.776 93.56C102.088 92.908 102.4 91.664 102.528 90.628C102.624 89.836 102.596 89.404 102.584 89.136C102.568 88.708 102.212 88.264 101.824 88.076L99.496 87.032C99.496 87.032 96.016 85.516 93.888 84.548C93.6653 84.4507 93.4267 84.3952 93.184 84.384C92.9103 84.3559 92.6338 84.3867 92.373 84.4743C92.1122 84.5619 91.8732 84.7043 91.672 84.892C91.652 84.884 91.384 85.112 88.492 88.616C88.326 88.839 88.0974 89.0076 87.8352 89.1002C87.5731 89.1928 87.2893 89.2053 87.02 89.136C86.7595 89.0661 86.5041 88.9779 86.256 88.872C85.76 88.664 85.588 88.584 85.248 88.44C82.9523 87.4382 80.8268 86.0846 78.948 84.428C78.444 83.988 77.976 83.508 77.496 83.044C75.9224 81.5369 74.5509 79.832 73.416 77.972L73.18 77.592C73.0105 77.3366 72.8735 77.0612 72.772 76.772C72.62 76.184 73.016 75.712 73.016 75.712C73.016 75.712 73.988 74.648 74.44 74.072C74.88 73.512 75.252 72.968 75.492 72.58C75.964 71.82 76.112 71.04 75.864 70.436C74.744 67.7 73.584 64.976 72.392 62.272C72.156 61.736 71.456 61.352 70.82 61.276C70.604 61.252 70.388 61.228 70.172 61.212C69.6349 61.1853 69.0966 61.1906 68.56 61.228L69.368 61.2Z" fill="white"/>
</g>
</g>
<defs>
<clipPath id="clip0_64_635">
<rect width="166" height="160" fill="white"/>
</clipPath>
</defs>
</svg>
